<svg width="34" height="34" viewBox="0 0 34 34" fill="none" xmlns="http://www.w3.org/2000/svg">
<path opacity="0.4" d="M25.4999 2.83325H8.49992C5.37031 2.83325 2.83325 5.37031 2.83325 8.49992V25.4999C2.83325 28.6295 5.37031 31.1666 8.49992 31.1666H25.4999C28.6295 31.1666 31.1666 28.6295 31.1666 25.4999V8.49992C31.1666 5.37031 28.6295 2.83325 25.4999 2.83325Z" fill="#E6E8E9"/>
<path d="M24.0832 9.9165H20.5415C17.4119 9.9165 14.8748 12.4536 14.8748 15.5832V18.4165H9.9165V22.6665H14.8748V31.1665H19.1248V22.6665H24.0832V18.4165H19.1248V15.5832C19.1248 14.8008 19.7591 14.1665 20.5415 14.1665H24.0832V9.9165Z" fill="#E6E8E9"/>
</svg>
