<svg width="22" height="18" viewBox="0 0 22 18" fill="none" xmlns="http://www.w3.org/2000/svg">
<path opacity="0.4" fill-rule="evenodd" clip-rule="evenodd" d="M0.458008 1.66675C0.458008 0.907357 1.07362 0.291748 1.83301 0.291748H20.1663C20.9257 0.291748 21.5413 0.907357 21.5413 1.66675C21.5413 2.42614 20.9257 3.04175 20.1663 3.04175H1.83301C1.07362 3.04175 0.458008 2.42614 0.458008 1.66675Z" fill="#E6E8E9"/>
<path fill-rule="evenodd" clip-rule="evenodd" d="M0.458008 9C0.458008 8.24061 1.07362 7.625 1.83301 7.625H20.1663C20.9257 7.625 21.5413 8.24061 21.5413 9C21.5413 9.75939 20.9257 10.375 20.1663 10.375H1.83301C1.07362 10.375 0.458008 9.75939 0.458008 9Z" fill="#E6E8E9"/>
<path opacity="0.4" fill-rule="evenodd" clip-rule="evenodd" d="M0.458008 16.3335C0.458008 15.5741 1.07362 14.9585 1.83301 14.9585H20.1663C20.9257 14.9585 21.5413 15.5741 21.5413 16.3335C21.5413 17.0929 20.9257 17.7085 20.1663 17.7085H1.83301C1.07362 17.7085 0.458008 17.0929 0.458008 16.3335Z" fill="#E6E8E9"/>
</svg>
