<svg width="34" height="34" viewBox="0 0 34 34" fill="none" xmlns="http://www.w3.org/2000/svg">
<path opacity="0.4" d="M2.83325 8.49992C2.83325 5.37031 5.37031 2.83325 8.49992 2.83325H25.4999C28.6295 2.83325 31.1666 5.37031 31.1666 8.49992V25.4999C31.1666 28.6295 28.6295 31.1666 25.4999 31.1666H8.49992C5.37031 31.1666 2.83325 28.6295 2.83325 25.4999V8.49992Z" fill="#E6E8E9"/>
<circle cx="25.4999" cy="8.49992" r="1.41667" fill="#E6E8E9"/>
<path fill-rule="evenodd" clip-rule="evenodd" d="M16.9998 24.0832C20.9119 24.0832 24.0832 20.9119 24.0832 16.9998C24.0832 13.0878 20.9119 9.9165 16.9998 9.9165C13.0878 9.9165 9.9165 13.0878 9.9165 16.9998C9.9165 20.9119 13.0878 24.0832 16.9998 24.0832ZM16.9998 21.2498C19.347 21.2498 21.2498 19.347 21.2498 16.9998C21.2498 14.6526 19.347 12.7498 16.9998 12.7498C14.6526 12.7498 12.7498 14.6526 12.7498 16.9998C12.7498 19.347 14.6526 21.2498 16.9998 21.2498Z" fill="#E6E8E9"/>
</svg>
