<svg width="175" height="63" viewBox="0 0 175 63" fill="none" xmlns="http://www.w3.org/2000/svg">
<path d="M41.568 31.68C42.368 31.872 42.768 32.368 42.768 33.168V36H33.216V20.352C33.216 18.752 32.88 17.568 32.208 16.8C31.536 16 30.528 15.6 29.184 15.6C28.64 15.6 28.064 15.712 27.456 15.936C26.944 16.128 26.496 16.416 26.112 16.8C25.792 17.12 25.488 17.616 25.2 18.288C24.976 18.832 24.864 19.52 24.864 20.352V31.248L26.256 31.488L26.976 31.632L27.264 31.68C28.064 31.872 28.464 32.368 28.464 33.168V36H18.912V20.352C18.912 18.72 18.576 17.52 17.904 16.752C17.232 15.984 16.256 15.6 14.976 15.6C14.112 15.6 13.312 15.808 12.576 16.224C11.904 16.608 11.216 17.2 10.512 18V31.248L11.904 31.488L12.624 31.632L12.912 31.68C13.712 31.872 14.112 32.368 14.112 33.168V36H0.96V33.168C0.96 32.368 1.36 31.872 2.16 31.68L2.448 31.632C2.544 31.632 2.64 31.616 2.736 31.584C2.864 31.552 3.008 31.52 3.168 31.488L4.56 31.248V16.128L3.168 15.888C3.008 15.856 2.864 15.824 2.736 15.792C2.64 15.76 2.544 15.744 2.448 15.744L2.16 15.696C1.328 15.504 0.912 15.008 0.912 14.208V11.376H8.208C8.944 11.376 9.44 11.744 9.696 12.48L10.08 14.304C10.656 13.664 11.104 13.216 11.424 12.96C11.872 12.608 12.384 12.272 12.96 11.952C13.472 11.664 14.048 11.424 14.688 11.232C15.2 11.072 15.872 10.992 16.704 10.992C18.304 10.992 19.584 11.408 20.544 12.24C21.568 13.136 22.32 14.256 22.8 15.6C23.184 14.768 23.664 14.064 24.24 13.488C24.752 12.976 25.376 12.512 26.112 12.096C26.656 11.776 27.392 11.504 28.32 11.28C29.088 11.088 29.872 10.992 30.672 10.992C32.048 10.992 33.248 11.2 34.272 11.616C35.392 12.064 36.288 12.672 36.96 13.44C37.664 14.24 38.208 15.216 38.592 16.368C38.976 17.52 39.168 18.848 39.168 20.352V31.248L40.56 31.488C40.72 31.52 40.848 31.552 40.944 31.584C41.072 31.616 41.184 31.632 41.28 31.632L41.568 31.68ZM54.8235 10.992C56.3915 10.992 57.8155 11.232 59.0955 11.712C60.3115 12.16 61.4315 12.896 62.4555 13.92C63.3835 14.848 64.1195 16.016 64.6635 17.424C65.2075 18.864 65.4795 20.432 65.4795 22.128C65.4795 22.512 65.4475 22.896 65.3835 23.28C65.3195 23.632 65.2555 23.856 65.1915 23.952C65.1275 24.112 64.9835 24.24 64.7595 24.336C64.6315 24.4 64.4075 24.432 64.0875 24.432H48.8715C49.0635 26.96 49.7515 28.816 50.9355 30C52.1195 31.184 53.6875 31.776 55.6395 31.776C56.6315 31.776 57.4475 31.664 58.0875 31.44C58.7915 31.216 59.3995 30.96 59.9115 30.672C60.1355 30.544 60.3595 30.432 60.5835 30.336C60.8395 30.208 61.0795 30.08 61.3035 29.952C61.6555 29.728 62.0235 29.616 62.4075 29.616C62.6635 29.616 62.8875 29.664 63.0795 29.76C63.2395 29.824 63.3835 29.952 63.5115 30.144L65.2395 32.304C64.5035 33.136 63.7675 33.792 63.0315 34.272C62.1675 34.816 61.3195 35.232 60.4875 35.52C59.6875 35.776 58.7755 35.984 57.7515 36.144C56.9515 36.272 56.0555 36.336 55.0635 36.336C53.3035 36.336 51.7195 36.064 50.3115 35.52C48.9035 34.976 47.6235 34.128 46.4715 32.976C45.3835 31.888 44.5195 30.512 43.8795 28.848C43.2715 27.248 42.9675 25.344 42.9675 23.136C42.9675 21.536 43.2395 19.968 43.7835 18.432C44.2955 16.992 45.0795 15.696 46.1355 14.544C47.1275 13.456 48.3595 12.592 49.8315 11.952C51.3035 11.312 52.9675 10.992 54.8235 10.992ZM54.9195 15.216C53.2235 15.216 51.8795 15.712 50.8875 16.704C49.9275 17.664 49.3035 19.04 49.0155 20.832H60.1515C60.1515 20.16 60.0395 19.44 59.8155 18.672C59.6235 18.064 59.3035 17.472 58.8555 16.896C58.4395 16.384 57.8955 15.984 57.2235 15.696C56.4875 15.376 55.7195 15.216 54.9195 15.216ZM84.4886 35.904C84.1366 35.904 83.8166 35.808 83.5286 35.616C83.2726 35.456 83.0966 35.184 83.0006 34.8L82.5206 32.544C81.5606 33.632 80.4246 34.544 79.1126 35.28C77.8326 35.984 76.3126 36.336 74.5526 36.336C73.1766 36.336 71.9606 36.064 70.9046 35.52C69.7846 34.944 68.8246 34.128 68.0246 33.072C67.2246 32.048 66.6006 30.736 66.1526 29.136C65.7046 27.504 65.4806 25.712 65.4806 23.76C65.4806 21.936 65.7206 20.24 66.2006 18.672C66.6486 17.2 67.3686 15.84 68.3606 14.592C69.2246 13.504 70.3286 12.608 71.6726 11.904C72.9526 11.232 74.4086 10.896 76.0406 10.896C77.4166 10.896 78.6006 11.12 79.5926 11.568C80.6486 12.048 81.5126 12.624 82.1846 13.296V5.088L80.7926 4.848C80.6326 4.816 80.4886 4.784 80.3606 4.752C80.2646 4.72 80.1686 4.704 80.0726 4.704L79.7846 4.656C78.9846 4.464 78.5846 3.968 78.5846 3.168V0.335999H88.1366V31.2L89.3846 31.392L90.0086 31.536L90.2966 31.584C91.0966 31.776 91.4966 32.272 91.4966 33.072V35.904H84.4886ZM82.2326 17.664C81.5926 16.864 80.8566 16.288 80.0246 15.936C79.1606 15.584 78.2966 15.408 77.4326 15.408C76.6006 15.408 75.8006 15.584 75.0326 15.936C74.3286 16.256 73.7046 16.768 73.1606 17.472C72.6806 18.144 72.2966 19.008 72.0086 20.064C71.7526 20.992 71.6246 22.224 71.6246 23.76C71.6246 25.296 71.7366 26.528 71.9606 27.456C72.1846 28.416 72.5206 29.216 72.9686 29.856C73.4166 30.528 73.9286 30.992 74.5046 31.248C75.1126 31.536 75.8166 31.68 76.6166 31.68C77.8966 31.68 78.9526 31.424 79.7846 30.912C80.6806 30.368 81.4966 29.632 82.2326 28.704V17.664ZM102.164 4.176C102.164 4.624 102.052 5.104 101.828 5.616C101.636 6.064 101.364 6.464 101.012 6.816C100.628 7.2 100.228 7.472 99.8123 7.632C99.3323 7.824 98.8363 7.92 98.3243 7.92C97.8123 7.92 97.3163 7.824 96.8363 7.632C96.4523 7.472 96.0683 7.2 95.6843 6.816C95.3323 6.464 95.0603 6.064 94.8683 5.616C94.6763 5.168 94.5803 4.688 94.5803 4.176C94.5803 3.664 94.6763 3.168 94.8683 2.688C95.0283 2.272 95.3003 1.872 95.6843 1.488C96.0363 1.136 96.4203 0.879999 96.8363 0.719999C97.4123 0.495998 97.9083 0.383998 98.3243 0.383998C98.7403 0.383998 99.2363 0.495998 99.8123 0.719999C100.292 0.911999 100.692 1.168 101.012 1.488C101.396 1.872 101.668 2.272 101.828 2.688C102.052 3.232 102.164 3.728 102.164 4.176ZM103.7 31.68C104.5 31.872 104.9 32.368 104.9 33.168V36H91.7003V33.168C91.7003 32.368 92.1003 31.872 92.9003 31.68L93.1883 31.632L93.9083 31.488L95.3483 31.248V16.128L93.9083 15.888C93.7483 15.856 93.6043 15.824 93.4763 15.792C93.3803 15.76 93.2843 15.744 93.1883 15.744L92.9003 15.696C92.1003 15.504 91.7003 15.008 91.7003 14.208V11.376H101.252V31.248L102.692 31.488C102.852 31.52 102.98 31.552 103.076 31.584C103.204 31.616 103.316 31.632 103.412 31.632L103.7 31.68ZM130.272 39.744C131.072 39.936 131.472 40.432 131.472 41.232V44.064H118.08V41.232C118.08 40.432 118.48 39.936 119.28 39.744L119.568 39.696L120.288 39.552L121.68 39.312V32.928C120.784 33.888 119.68 34.704 118.368 35.376C117.088 36.016 115.648 36.336 114.048 36.336C112.736 36.336 111.52 36.048 110.4 35.472C109.248 34.864 108.288 34.064 107.52 33.072C106.688 32.016 106.064 30.72 105.648 29.184C105.2 27.584 104.976 25.792 104.976 23.808C104.976 21.984 105.216 20.288 105.696 18.72C106.144 17.248 106.864 15.888 107.856 14.64C108.816 13.424 109.92 12.512 111.168 11.904C112.416 11.264 113.872 10.944 115.536 10.944C119.152 10.944 123.184 11.392 127.632 12.288V39.312L129.12 39.552C129.312 39.584 129.472 39.616 129.6 39.648C129.728 39.68 129.824 39.696 129.888 39.696L130.272 39.744ZM119.28 30.912C120.144 30.368 120.944 29.648 121.68 28.752V15.936C119.92 15.616 118.336 15.456 116.928 15.456C116.064 15.456 115.248 15.632 114.48 15.984C113.744 16.336 113.136 16.848 112.656 17.52C112.208 18.096 111.824 18.96 111.504 20.112C111.216 21.168 111.072 22.4 111.072 23.808C111.072 25.152 111.2 26.368 111.456 27.456C111.712 28.544 112.032 29.36 112.416 29.904C112.864 30.544 113.392 31.008 114 31.296C114.608 31.584 115.312 31.728 116.112 31.728C117.328 31.728 118.384 31.456 119.28 30.912ZM144.39 24H131.91V19.008H144.39V24ZM155.641 4.176C155.641 4.624 155.529 5.104 155.305 5.616C155.113 6.064 154.841 6.464 154.489 6.816C154.105 7.2 153.705 7.472 153.289 7.632C152.809 7.824 152.313 7.92 151.801 7.92C151.289 7.92 150.793 7.824 150.313 7.632C149.929 7.472 149.545 7.2 149.161 6.816C148.809 6.464 148.537 6.064 148.345 5.616C148.153 5.168 148.057 4.688 148.057 4.176C148.057 3.664 148.153 3.168 148.345 2.688C148.505 2.272 148.777 1.872 149.161 1.488C149.513 1.136 149.897 0.879999 150.313 0.719999C150.889 0.495998 151.385 0.383998 151.801 0.383998C152.217 0.383998 152.713 0.495998 153.289 0.719999C153.769 0.911999 154.169 1.168 154.489 1.488C154.873 1.872 155.145 2.272 155.305 2.688C155.529 3.232 155.641 3.728 155.641 4.176ZM157.177 31.68C157.977 31.872 158.377 32.368 158.377 33.168V36H145.177V33.168C145.177 32.368 145.577 31.872 146.377 31.68L146.665 31.632L147.385 31.488L148.825 31.248V16.128L147.385 15.888C147.225 15.856 147.081 15.824 146.953 15.792C146.857 15.76 146.761 15.744 146.665 15.744L146.377 15.696C145.577 15.504 145.177 15.008 145.177 14.208V11.376H154.729V31.248L156.169 31.488C156.329 31.52 156.457 31.552 156.553 31.584C156.681 31.616 156.793 31.632 156.889 31.632L157.177 31.68Z" fill="#E6E8E9"/>
<path d="M12.936 51.732C12.936 51.868 12.86 51.94 12.708 51.948L12.288 51.972L9.768 60H9.216L6.708 52.632C6.676 52.56 6.648 52.46 6.624 52.332C6.6 52.46 6.572 52.56 6.54 52.632L4.02 60H3.48L0.948 51.972L0.528 51.948C0.368 51.932 0.288 51.86 0.288 51.732V51.504H2.568V51.732C2.568 51.86 2.488 51.932 2.328 51.948L1.632 51.972L3.672 58.644C3.696 58.732 3.736 58.916 3.792 59.196L3.864 58.92C3.904 58.752 3.924 58.664 3.924 58.656L6.324 51.66C6.332 51.62 6.356 51.584 6.396 51.552C6.444 51.52 6.496 51.504 6.552 51.504H6.72C6.792 51.504 6.84 51.516 6.864 51.54C6.896 51.564 6.924 51.604 6.948 51.66L9.348 58.644C9.396 58.796 9.44 58.976 9.48 59.184C9.536 58.896 9.576 58.716 9.6 58.644L11.64 51.972L10.896 51.948C10.744 51.94 10.668 51.868 10.668 51.732V51.504H12.936V51.732ZM16.0265 53.928C16.7545 53.928 17.3265 54.172 17.7425 54.66C18.1665 55.148 18.3785 55.78 18.3785 56.556C18.3785 56.708 18.3225 56.784 18.2105 56.784H13.9025C13.9025 57.672 14.0865 58.368 14.4545 58.872C14.8225 59.376 15.3745 59.628 16.1105 59.628C16.4065 59.628 16.7145 59.576 17.0345 59.472C17.3625 59.368 17.6185 59.236 17.8025 59.076C17.8665 59.012 17.9305 58.98 17.9945 58.98C18.0505 58.98 18.0905 59 18.1145 59.04L18.2705 59.232C18.0625 59.488 17.7425 59.692 17.3105 59.844C16.8865 59.996 16.4705 60.072 16.0625 60.072C15.1745 60.072 14.4945 59.78 14.0225 59.196C13.5585 58.604 13.3265 57.836 13.3265 56.892C13.3265 56.324 13.4345 55.816 13.6505 55.368C13.8745 54.92 14.1905 54.568 14.5985 54.312C15.0065 54.056 15.4825 53.928 16.0265 53.928ZM16.0385 54.36C15.4305 54.36 14.9425 54.544 14.5745 54.912C14.2145 55.272 13.9985 55.772 13.9265 56.412H17.8625C17.8625 55.788 17.6945 55.292 17.3585 54.924C17.0305 54.548 16.5905 54.36 16.0385 54.36ZM25.6658 58.248C25.6658 58.808 25.4658 59.256 25.0658 59.592C24.6738 59.928 24.1738 60.096 23.5658 60.096C22.9898 60.096 22.4018 59.984 21.8018 59.76V58.308H22.0898C22.2578 58.308 22.3458 58.404 22.3538 58.596L22.4258 59.484C22.7378 59.612 23.1258 59.676 23.5898 59.676C24.0298 59.676 24.3938 59.556 24.6818 59.316C24.9778 59.076 25.1258 58.752 25.1258 58.344C25.1258 58.016 24.9898 57.768 24.7178 57.6C24.4538 57.424 24.0338 57.252 23.4578 57.084C22.9138 56.932 22.5018 56.744 22.2218 56.52C21.9418 56.288 21.8018 55.964 21.8018 55.548C21.8018 55.228 21.8898 54.948 22.0658 54.708C22.2498 54.46 22.4898 54.272 22.7858 54.144C23.0898 54.008 23.4178 53.94 23.7698 53.94C24.2258 53.94 24.7538 54.044 25.3538 54.252V55.68H25.0658C24.9058 55.68 24.8178 55.584 24.8018 55.392L24.7298 54.528C24.4178 54.424 24.1018 54.372 23.7818 54.372C23.3898 54.372 23.0498 54.476 22.7618 54.684C22.4818 54.892 22.3418 55.168 22.3418 55.512C22.3418 55.728 22.4098 55.908 22.5458 56.052C22.6818 56.196 22.8578 56.316 23.0738 56.412C23.2978 56.5 23.6058 56.6 23.9978 56.712C24.5258 56.864 24.9338 57.06 25.2218 57.3C25.5178 57.532 25.6658 57.848 25.6658 58.248ZM28.9269 53.928C29.6549 53.928 30.2269 54.172 30.6429 54.66C31.0669 55.148 31.2789 55.78 31.2789 56.556C31.2789 56.708 31.2229 56.784 31.1109 56.784H26.8029C26.8029 57.672 26.9869 58.368 27.3549 58.872C27.7229 59.376 28.2749 59.628 29.0109 59.628C29.3069 59.628 29.6149 59.576 29.9349 59.472C30.2629 59.368 30.5189 59.236 30.7029 59.076C30.7669 59.012 30.8309 58.98 30.8949 58.98C30.9509 58.98 30.9909 59 31.0149 59.04L31.1709 59.232C30.9629 59.488 30.6429 59.692 30.2109 59.844C29.7869 59.996 29.3709 60.072 28.9629 60.072C28.0749 60.072 27.3949 59.78 26.9229 59.196C26.4589 58.604 26.2269 57.836 26.2269 56.892C26.2269 56.324 26.3349 55.816 26.5509 55.368C26.7749 54.92 27.0909 54.568 27.4989 54.312C27.9069 54.056 28.3829 53.928 28.9269 53.928ZM28.9389 54.36C28.3309 54.36 27.8429 54.544 27.4749 54.912C27.1149 55.272 26.8989 55.772 26.8269 56.412H30.7629C30.7629 55.788 30.5949 55.292 30.2589 54.924C29.9309 54.548 29.4909 54.36 28.9389 54.36ZM34.5318 53.928C35.2598 53.928 35.8318 54.172 36.2478 54.66C36.6718 55.148 36.8838 55.78 36.8838 56.556C36.8838 56.708 36.8278 56.784 36.7158 56.784H32.4078C32.4078 57.672 32.5918 58.368 32.9598 58.872C33.3278 59.376 33.8798 59.628 34.6158 59.628C34.9118 59.628 35.2198 59.576 35.5398 59.472C35.8678 59.368 36.1238 59.236 36.3078 59.076C36.3718 59.012 36.4358 58.98 36.4998 58.98C36.5558 58.98 36.5958 59 36.6198 59.04L36.7758 59.232C36.5678 59.488 36.2478 59.692 35.8158 59.844C35.3918 59.996 34.9758 60.072 34.5678 60.072C33.6798 60.072 32.9998 59.78 32.5278 59.196C32.0638 58.604 31.8318 57.836 31.8318 56.892C31.8318 56.324 31.9398 55.816 32.1558 55.368C32.3798 54.92 32.6958 54.568 33.1038 54.312C33.5118 54.056 33.9878 53.928 34.5318 53.928ZM34.5438 54.36C33.9358 54.36 33.4478 54.544 33.0798 54.912C32.7198 55.272 32.5038 55.772 32.4318 56.412H36.3678C36.3678 55.788 36.1998 55.292 35.8638 54.924C35.5358 54.548 35.0958 54.36 34.5438 54.36ZM46.1392 54.252C46.1392 54.38 46.0592 54.452 45.8992 54.468L45.4912 54.48L42.2632 61.92C42.2072 62.048 42.1192 62.112 41.9992 62.112H41.5912L42.6472 59.784L40.3192 54.48L39.9592 54.468C39.7992 54.452 39.7192 54.38 39.7192 54.252V54.024H41.8072V54.252C41.8072 54.38 41.7272 54.452 41.5672 54.468L40.9552 54.492L42.8152 58.824C42.8632 58.928 42.9032 59.048 42.9352 59.184C42.9592 59.088 43.0032 58.968 43.0672 58.824L44.9032 54.492L44.2912 54.468C44.1312 54.452 44.0512 54.38 44.0512 54.252V54.024H46.1392V54.252ZM49.2847 53.928C50.1327 53.928 50.7967 54.212 51.2767 54.78C51.7567 55.34 51.9967 56.084 51.9967 57.012C51.9967 57.948 51.7567 58.692 51.2767 59.244C50.7967 59.796 50.1327 60.072 49.2847 60.072C48.4207 60.072 47.7487 59.796 47.2687 59.244C46.7887 58.684 46.5487 57.94 46.5487 57.012C46.5487 56.084 46.7887 55.34 47.2687 54.78C47.7567 54.212 48.4287 53.928 49.2847 53.928ZM49.2847 59.628C49.9887 59.628 50.5167 59.396 50.8687 58.932C51.2287 58.46 51.4087 57.82 51.4087 57.012C51.4087 56.212 51.2287 55.576 50.8687 55.104C50.5167 54.624 49.9887 54.384 49.2847 54.384C48.5727 54.384 48.0367 54.62 47.6767 55.092C47.3247 55.556 47.1487 56.196 47.1487 57.012C47.1487 57.82 47.3247 58.46 47.6767 58.932C48.0287 59.396 48.5647 59.628 49.2847 59.628ZM58.5279 59.544C58.6879 59.56 58.7679 59.632 58.7679 59.76V60H57.5919C57.4719 60 57.4119 59.948 57.4119 59.844L57.3639 58.956C57.0759 59.316 56.7479 59.596 56.3799 59.796C56.0119 59.996 55.6159 60.096 55.1919 60.096C54.5439 60.096 54.0479 59.892 53.7039 59.484C53.3679 59.076 53.1999 58.528 53.1999 57.84V54.504L52.5759 54.48C52.4159 54.464 52.3359 54.392 52.3359 54.264V54.036H53.1999L53.7759 54.024V57.84C53.7759 58.408 53.9039 58.852 54.1599 59.172C54.4239 59.484 54.8159 59.64 55.3359 59.64C55.7119 59.64 56.0719 59.54 56.4159 59.34C56.7599 59.14 57.0639 58.864 57.3279 58.512V54.504L56.7039 54.48C56.5439 54.464 56.4639 54.392 56.4639 54.264V54.036H57.3279L57.9039 54.024V59.52L58.5279 59.544ZM59.8438 61.428C59.8118 61.396 59.7958 61.36 59.7958 61.32C59.7958 61.288 59.8158 61.252 59.8558 61.212C59.9998 61.068 60.1358 60.868 60.2638 60.612C60.3918 60.356 60.4598 60.152 60.4678 60C60.4038 60.016 60.3478 60.024 60.2998 60.024C60.1558 60.024 60.0318 59.972 59.9278 59.868C59.8238 59.764 59.7718 59.64 59.7718 59.496C59.7718 59.352 59.8238 59.232 59.9278 59.136C60.0318 59.032 60.1558 58.98 60.2998 58.98C60.4678 58.98 60.5998 59.04 60.6958 59.16C60.7918 59.28 60.8398 59.432 60.8398 59.616C60.8398 60.28 60.5398 60.912 59.9398 61.512L59.8438 61.428ZM73.5808 54.264C73.5808 54.392 73.5008 54.464 73.3408 54.48L72.9208 54.492L71.0848 60H70.6648C70.5928 60 70.5448 59.956 70.5208 59.868L68.8888 55.02C68.8408 54.876 68.8088 54.76 68.7928 54.672L68.6968 55.02L67.0408 59.868C67.0168 59.956 66.9688 60 66.8968 60H66.5008L64.6528 54.492L64.2568 54.48C64.1048 54.472 64.0288 54.4 64.0288 54.264V54.036H66.1168V54.264C66.1168 54.392 66.0368 54.464 65.8768 54.48L65.2528 54.504L66.6568 58.884L66.7648 59.4L66.9208 58.884L68.5168 54.132C68.5408 54.044 68.5968 54 68.6848 54H68.9248C69.0128 54 69.0688 54.044 69.0928 54.132L70.6768 58.884C70.6848 58.916 70.7328 59.088 70.8208 59.4L70.8808 59.16C70.9128 59.032 70.9328 58.94 70.9408 58.884L72.3448 54.504L71.7328 54.48C71.5728 54.464 71.4928 54.392 71.4928 54.264V54.036H73.5808V54.264ZM76.6752 53.928C77.4032 53.928 77.9752 54.172 78.3912 54.66C78.8152 55.148 79.0272 55.78 79.0272 56.556C79.0272 56.708 78.9712 56.784 78.8592 56.784H74.5512C74.5512 57.672 74.7352 58.368 75.1032 58.872C75.4712 59.376 76.0232 59.628 76.7592 59.628C77.0552 59.628 77.3632 59.576 77.6832 59.472C78.0112 59.368 78.2672 59.236 78.4512 59.076C78.5152 59.012 78.5792 58.98 78.6432 58.98C78.6992 58.98 78.7392 59 78.7632 59.04L78.9192 59.232C78.7112 59.488 78.3912 59.692 77.9592 59.844C77.5352 59.996 77.1192 60.072 76.7112 60.072C75.8232 60.072 75.1432 59.78 74.6712 59.196C74.2072 58.604 73.9752 57.836 73.9752 56.892C73.9752 56.324 74.0832 55.816 74.2992 55.368C74.5232 54.92 74.8392 54.568 75.2472 54.312C75.6552 54.056 76.1312 53.928 76.6752 53.928ZM76.6872 54.36C76.0792 54.36 75.5912 54.544 75.2232 54.912C74.8632 55.272 74.6472 55.772 74.5752 56.412H78.5112C78.5112 55.788 78.3432 55.292 78.0072 54.924C77.6792 54.548 77.2392 54.36 76.6872 54.36ZM88.4386 59.544C88.5906 59.552 88.6666 59.624 88.6666 59.76V60H87.2386V56.184C87.2386 55.608 87.1106 55.168 86.8546 54.864C86.5986 54.552 86.2066 54.396 85.6786 54.396C84.9106 54.396 84.2466 54.772 83.6866 55.524V59.52L84.3106 59.544C84.4706 59.56 84.5506 59.632 84.5506 59.76V60H82.2466V59.76C82.2466 59.632 82.3266 59.56 82.4866 59.544L83.1106 59.52V51.744L82.4866 51.72C82.3266 51.704 82.2466 51.632 82.2466 51.504V51.276H83.6866V55.056C83.9986 54.68 84.3266 54.4 84.6706 54.216C85.0146 54.032 85.3986 53.94 85.8226 53.94C86.4786 53.94 86.9706 54.14 87.2986 54.54C87.6346 54.932 87.8026 55.48 87.8026 56.184V59.52L88.4386 59.544ZM91.9429 53.928C92.6709 53.928 93.2429 54.172 93.6589 54.66C94.0829 55.148 94.2949 55.78 94.2949 56.556C94.2949 56.708 94.2389 56.784 94.1269 56.784H89.8189C89.8189 57.672 90.0029 58.368 90.3709 58.872C90.7389 59.376 91.2909 59.628 92.0269 59.628C92.3229 59.628 92.6309 59.576 92.9509 59.472C93.2789 59.368 93.5349 59.236 93.7189 59.076C93.7829 59.012 93.8469 58.98 93.9109 58.98C93.9669 58.98 94.0069 59 94.0309 59.04L94.1869 59.232C93.9789 59.488 93.6589 59.692 93.2269 59.844C92.8029 59.996 92.3869 60.072 91.9789 60.072C91.0909 60.072 90.4109 59.78 89.9389 59.196C89.4749 58.604 89.2429 57.836 89.2429 56.892C89.2429 56.324 89.3509 55.816 89.5669 55.368C89.7909 54.92 90.1069 54.568 90.5149 54.312C90.9229 54.056 91.3989 53.928 91.9429 53.928ZM91.9549 54.36C91.3469 54.36 90.8589 54.544 90.4909 54.912C90.1309 55.272 89.9149 55.772 89.8429 56.412H93.7789C93.7789 55.788 93.6109 55.292 93.2749 54.924C92.9469 54.548 92.5069 54.36 91.9549 54.36ZM99.7917 59.544C99.9517 59.56 100.032 59.632 100.032 59.76V60H99.0117C98.8837 60 98.8077 59.944 98.7837 59.832L98.6997 59.064C98.2997 59.44 97.9397 59.708 97.6197 59.868C97.3077 60.02 96.9237 60.096 96.4677 60.096C95.9877 60.096 95.5997 59.96 95.3037 59.688C95.0157 59.408 94.8717 59.028 94.8717 58.548C94.8717 57.908 95.2557 57.448 96.0237 57.168C96.7917 56.888 97.6757 56.744 98.6757 56.736V56.112C98.6757 55.552 98.5557 55.128 98.3157 54.84C98.0837 54.544 97.7317 54.396 97.2597 54.396C96.9717 54.396 96.6797 54.46 96.3837 54.588C96.0877 54.708 95.8517 54.856 95.6757 55.032C95.5877 55.12 95.5037 55.164 95.4237 55.164C95.3597 55.164 95.3077 55.128 95.2677 55.056L95.1717 54.876C95.4917 54.556 95.8237 54.32 96.1677 54.168C96.5197 54.008 96.9037 53.928 97.3197 53.928C97.9517 53.928 98.4277 54.128 98.7477 54.528C99.0757 54.92 99.2397 55.448 99.2397 56.112V59.532L99.7917 59.544ZM98.6757 57.12C97.8117 57.128 97.0517 57.24 96.3957 57.456C95.7477 57.664 95.4237 58.024 95.4237 58.536C95.4237 58.896 95.5277 59.176 95.7357 59.376C95.9517 59.576 96.2437 59.676 96.6117 59.676C97.0517 59.676 97.4157 59.6 97.7037 59.448C97.9917 59.288 98.3157 59.028 98.6757 58.668V57.12ZM104.168 53.928C104.504 53.928 104.812 54.004 105.092 54.156L104.984 54.456C104.968 54.52 104.932 54.572 104.876 54.612C104.828 54.644 104.772 54.648 104.708 54.624C104.596 54.584 104.492 54.552 104.396 54.528C104.308 54.504 104.196 54.492 104.06 54.492C103.612 54.492 103.24 54.632 102.944 54.912C102.648 55.192 102.412 55.596 102.236 56.124V59.52L102.872 59.544C102.952 59.552 103.008 59.572 103.04 59.604C103.08 59.636 103.1 59.688 103.1 59.76V60H100.808V59.76C100.808 59.688 100.824 59.636 100.856 59.604C100.896 59.572 100.956 59.552 101.036 59.544L101.672 59.52V54.492L101.024 54.468C100.944 54.46 100.884 54.44 100.844 54.408C100.812 54.376 100.796 54.324 100.796 54.252V54.024H101.972C102.044 54.024 102.092 54.036 102.116 54.06C102.148 54.092 102.164 54.14 102.164 54.204L102.212 55.476C102.62 54.444 103.272 53.928 104.168 53.928ZM114.209 54.252C114.209 54.38 114.129 54.452 113.969 54.468L113.561 54.48L110.333 61.92C110.277 62.048 110.189 62.112 110.069 62.112H109.661L110.717 59.784L108.389 54.48L108.029 54.468C107.869 54.452 107.789 54.38 107.789 54.252V54.024H109.877V54.252C109.877 54.38 109.797 54.452 109.637 54.468L109.025 54.492L110.885 58.824C110.933 58.928 110.973 59.048 111.005 59.184C111.029 59.088 111.073 58.968 111.137 58.824L112.973 54.492L112.361 54.468C112.201 54.452 112.121 54.38 112.121 54.252V54.024H114.209V54.252ZM117.355 53.928C118.203 53.928 118.867 54.212 119.347 54.78C119.827 55.34 120.067 56.084 120.067 57.012C120.067 57.948 119.827 58.692 119.347 59.244C118.867 59.796 118.203 60.072 117.355 60.072C116.491 60.072 115.819 59.796 115.339 59.244C114.859 58.684 114.619 57.94 114.619 57.012C114.619 56.084 114.859 55.34 115.339 54.78C115.827 54.212 116.499 53.928 117.355 53.928ZM117.355 59.628C118.059 59.628 118.587 59.396 118.939 58.932C119.299 58.46 119.479 57.82 119.479 57.012C119.479 56.212 119.299 55.576 118.939 55.104C118.587 54.624 118.059 54.384 117.355 54.384C116.643 54.384 116.107 54.62 115.747 55.092C115.395 55.556 115.219 56.196 115.219 57.012C115.219 57.82 115.395 58.46 115.747 58.932C116.099 59.396 116.635 59.628 117.355 59.628ZM126.598 59.544C126.758 59.56 126.838 59.632 126.838 59.76V60H125.662C125.542 60 125.482 59.948 125.482 59.844L125.434 58.956C125.146 59.316 124.818 59.596 124.45 59.796C124.082 59.996 123.686 60.096 123.262 60.096C122.614 60.096 122.118 59.892 121.774 59.484C121.438 59.076 121.27 58.528 121.27 57.84V54.504L120.646 54.48C120.486 54.464 120.406 54.392 120.406 54.264V54.036H121.27L121.846 54.024V57.84C121.846 58.408 121.974 58.852 122.23 59.172C122.494 59.484 122.886 59.64 123.406 59.64C123.782 59.64 124.142 59.54 124.486 59.34C124.83 59.14 125.134 58.864 125.398 58.512V54.504L124.774 54.48C124.614 54.464 124.534 54.392 124.534 54.264V54.036H125.398L125.974 54.024V59.52L126.598 59.544ZM127.914 61.428C127.882 61.396 127.866 61.36 127.866 61.32C127.866 61.288 127.886 61.252 127.926 61.212C128.07 61.068 128.206 60.868 128.334 60.612C128.462 60.356 128.53 60.152 128.538 60C128.474 60.016 128.418 60.024 128.37 60.024C128.226 60.024 128.102 59.972 127.998 59.868C127.894 59.764 127.842 59.64 127.842 59.496C127.842 59.352 127.894 59.232 127.998 59.136C128.102 59.032 128.226 58.98 128.37 58.98C128.538 58.98 128.67 59.04 128.766 59.16C128.862 59.28 128.91 59.432 128.91 59.616C128.91 60.28 128.61 60.912 128.01 61.512L127.914 61.428ZM141.651 54.264C141.651 54.392 141.571 54.464 141.411 54.48L140.991 54.492L139.155 60H138.735C138.663 60 138.615 59.956 138.591 59.868L136.959 55.02C136.911 54.876 136.879 54.76 136.863 54.672L136.767 55.02L135.111 59.868C135.087 59.956 135.039 60 134.967 60H134.571L132.723 54.492L132.327 54.48C132.175 54.472 132.099 54.4 132.099 54.264V54.036H134.187V54.264C134.187 54.392 134.107 54.464 133.947 54.48L133.323 54.504L134.727 58.884L134.835 59.4L134.991 58.884L136.587 54.132C136.611 54.044 136.667 54 136.755 54H136.995C137.083 54 137.139 54.044 137.163 54.132L138.747 58.884C138.755 58.916 138.803 59.088 138.891 59.4L138.951 59.16C138.983 59.032 139.003 58.94 139.011 58.884L140.415 54.504L139.803 54.48C139.643 54.464 139.563 54.392 139.563 54.264V54.036H141.651V54.264ZM144.745 53.928C145.473 53.928 146.045 54.172 146.461 54.66C146.885 55.148 147.097 55.78 147.097 56.556C147.097 56.708 147.041 56.784 146.929 56.784H142.621C142.621 57.672 142.805 58.368 143.173 58.872C143.541 59.376 144.093 59.628 144.829 59.628C145.125 59.628 145.433 59.576 145.753 59.472C146.081 59.368 146.337 59.236 146.521 59.076C146.585 59.012 146.649 58.98 146.713 58.98C146.769 58.98 146.809 59 146.833 59.04L146.989 59.232C146.781 59.488 146.461 59.692 146.029 59.844C145.605 59.996 145.189 60.072 144.781 60.072C143.893 60.072 143.213 59.78 142.741 59.196C142.277 58.604 142.045 57.836 142.045 56.892C142.045 56.324 142.153 55.816 142.369 55.368C142.593 54.92 142.909 54.568 143.317 54.312C143.725 54.056 144.201 53.928 144.745 53.928ZM144.757 54.36C144.149 54.36 143.661 54.544 143.293 54.912C142.933 55.272 142.717 55.772 142.645 56.412H146.581C146.581 55.788 146.413 55.292 146.077 54.924C145.749 54.548 145.309 54.36 144.757 54.36ZM154.793 59.232C154.569 59.512 154.269 59.724 153.893 59.868C153.525 60.012 153.145 60.084 152.753 60.084C152.225 60.084 151.765 59.952 151.373 59.688C150.989 59.416 150.693 59.048 150.485 58.584C150.285 58.12 150.185 57.596 150.185 57.012C150.185 56.412 150.289 55.88 150.497 55.416C150.705 54.952 151.013 54.592 151.421 54.336C151.829 54.072 152.317 53.94 152.885 53.94C153.389 53.94 153.949 54.064 154.565 54.312V55.812H154.277C154.117 55.812 154.029 55.716 154.013 55.524C154.013 55.5 154.005 55.408 153.989 55.248C153.973 55.08 153.957 54.86 153.941 54.588C153.549 54.452 153.209 54.384 152.921 54.384C152.225 54.384 151.693 54.624 151.325 55.104C150.957 55.584 150.773 56.22 150.773 57.012C150.773 57.796 150.953 58.428 151.313 58.908C151.673 59.388 152.181 59.628 152.837 59.628C153.125 59.628 153.409 59.576 153.689 59.472C153.969 59.368 154.189 59.236 154.349 59.076C154.413 59.012 154.473 58.98 154.529 58.98C154.577 58.98 154.613 59 154.637 59.04L154.793 59.232ZM160.276 59.544C160.436 59.56 160.516 59.632 160.516 59.76V60H159.496C159.368 60 159.292 59.944 159.268 59.832L159.184 59.064C158.784 59.44 158.424 59.708 158.104 59.868C157.792 60.02 157.408 60.096 156.952 60.096C156.472 60.096 156.084 59.96 155.788 59.688C155.5 59.408 155.356 59.028 155.356 58.548C155.356 57.908 155.74 57.448 156.508 57.168C157.276 56.888 158.16 56.744 159.16 56.736V56.112C159.16 55.552 159.04 55.128 158.8 54.84C158.568 54.544 158.216 54.396 157.744 54.396C157.456 54.396 157.164 54.46 156.868 54.588C156.572 54.708 156.336 54.856 156.16 55.032C156.072 55.12 155.988 55.164 155.908 55.164C155.844 55.164 155.792 55.128 155.752 55.056L155.656 54.876C155.976 54.556 156.308 54.32 156.652 54.168C157.004 54.008 157.388 53.928 157.804 53.928C158.436 53.928 158.912 54.128 159.232 54.528C159.56 54.92 159.724 55.448 159.724 56.112V59.532L160.276 59.544ZM159.16 57.12C158.296 57.128 157.536 57.24 156.88 57.456C156.232 57.664 155.908 58.024 155.908 58.536C155.908 58.896 156.012 59.176 156.22 59.376C156.436 59.576 156.728 59.676 157.096 59.676C157.536 59.676 157.9 59.6 158.188 59.448C158.476 59.288 158.8 59.028 159.16 58.668V57.12ZM164.653 53.928C164.989 53.928 165.297 54.004 165.577 54.156L165.469 54.456C165.453 54.52 165.417 54.572 165.361 54.612C165.313 54.644 165.257 54.648 165.193 54.624C165.081 54.584 164.977 54.552 164.881 54.528C164.793 54.504 164.681 54.492 164.545 54.492C164.097 54.492 163.725 54.632 163.429 54.912C163.133 55.192 162.897 55.596 162.721 56.124V59.52L163.357 59.544C163.437 59.552 163.493 59.572 163.525 59.604C163.565 59.636 163.585 59.688 163.585 59.76V60H161.293V59.76C161.293 59.688 161.309 59.636 161.341 59.604C161.381 59.572 161.441 59.552 161.521 59.544L162.157 59.52V54.492L161.509 54.468C161.429 54.46 161.369 54.44 161.329 54.408C161.297 54.376 161.281 54.324 161.281 54.252V54.024H162.457C162.529 54.024 162.577 54.036 162.601 54.06C162.633 54.092 162.649 54.14 162.649 54.204L162.697 55.476C163.105 54.444 163.757 53.928 164.653 53.928ZM168.691 53.928C169.419 53.928 169.991 54.172 170.407 54.66C170.831 55.148 171.043 55.78 171.043 56.556C171.043 56.708 170.987 56.784 170.875 56.784H166.567C166.567 57.672 166.751 58.368 167.119 58.872C167.487 59.376 168.039 59.628 168.775 59.628C169.071 59.628 169.379 59.576 169.699 59.472C170.027 59.368 170.283 59.236 170.467 59.076C170.531 59.012 170.595 58.98 170.659 58.98C170.715 58.98 170.755 59 170.779 59.04L170.935 59.232C170.727 59.488 170.407 59.692 169.975 59.844C169.551 59.996 169.135 60.072 168.727 60.072C167.839 60.072 167.159 59.78 166.687 59.196C166.223 58.604 165.991 57.836 165.991 56.892C165.991 56.324 166.099 55.816 166.315 55.368C166.539 54.92 166.855 54.568 167.263 54.312C167.671 54.056 168.147 53.928 168.691 53.928ZM168.703 54.36C168.095 54.36 167.607 54.544 167.239 54.912C166.879 55.272 166.663 55.772 166.591 56.412H170.527C170.527 55.788 170.359 55.292 170.023 54.924C169.695 54.548 169.255 54.36 168.703 54.36Z" fill="#E6E8E9"/>
</svg>
