<svg width="116" height="43" viewBox="0 0 116 43" fill="none" xmlns="http://www.w3.org/2000/svg">
<path d="M29.444 22.94C30.0107 23.076 30.294 23.4273 30.294 23.994V26H23.528V14.916C23.528 13.7827 23.29 12.944 22.814 12.4C22.338 11.8333 21.624 11.55 20.672 11.55C20.2867 11.55 19.8787 11.6293 19.448 11.788C19.0853 11.924 18.768 12.128 18.496 12.4C18.2693 12.6267 18.054 12.978 17.85 13.454C17.6913 13.8393 17.612 14.3267 17.612 14.916V22.634L18.598 22.804L19.108 22.906L19.312 22.94C19.8787 23.076 20.162 23.4273 20.162 23.994V26H13.396V14.916C13.396 13.76 13.158 12.91 12.682 12.366C12.206 11.822 11.5147 11.55 10.608 11.55C9.996 11.55 9.42933 11.6973 8.908 11.992C8.432 12.264 7.94467 12.6833 7.446 13.25V22.634L8.432 22.804L8.942 22.906L9.146 22.94C9.71267 23.076 9.996 23.4273 9.996 23.994V26H0.68V23.994C0.68 23.4273 0.963333 23.076 1.53 22.94L1.734 22.906C1.802 22.906 1.87 22.8947 1.938 22.872C2.02867 22.8493 2.13067 22.8267 2.244 22.804L3.23 22.634V11.924L2.244 11.754C2.13067 11.7313 2.02867 11.7087 1.938 11.686C1.87 11.6633 1.802 11.652 1.734 11.652L1.53 11.618C0.940667 11.482 0.646 11.1307 0.646 10.564V8.558H5.814C6.33533 8.558 6.68667 8.81867 6.868 9.34L7.14 10.632C7.548 10.1787 7.86533 9.86133 8.092 9.68C8.40933 9.43067 8.772 9.19267 9.18 8.966C9.54267 8.762 9.95067 8.592 10.404 8.456C10.7667 8.34267 11.2427 8.286 11.832 8.286C12.9653 8.286 13.872 8.58067 14.552 9.17C15.2773 9.80467 15.81 10.598 16.15 11.55C16.422 10.9607 16.762 10.462 17.17 10.054C17.5327 9.69133 17.9747 9.36267 18.496 9.068C18.8813 8.84133 19.4027 8.64867 20.06 8.49C20.604 8.354 21.1593 8.286 21.726 8.286C22.7007 8.286 23.5507 8.43333 24.276 8.728C25.0693 9.04533 25.704 9.476 26.18 10.02C26.6787 10.5867 27.064 11.278 27.336 12.094C27.608 12.91 27.744 13.8507 27.744 14.916V22.634L28.73 22.804C28.8433 22.8267 28.934 22.8493 29.002 22.872C29.0927 22.8947 29.172 22.906 29.24 22.906L29.444 22.94ZM38.8333 8.286C39.944 8.286 40.9526 8.456 41.8593 8.796C42.7206 9.11333 43.514 9.63467 44.2393 10.36C44.8966 11.0173 45.418 11.8447 45.8033 12.842C46.1886 13.862 46.3813 14.9727 46.3813 16.174C46.3813 16.446 46.3586 16.718 46.3133 16.99C46.268 17.2393 46.2226 17.398 46.1773 17.466C46.132 17.5793 46.03 17.67 45.8713 17.738C45.7806 17.7833 45.622 17.806 45.3953 17.806H34.6173C34.7533 19.5967 35.2406 20.9113 36.0793 21.75C36.918 22.5887 38.0286 23.008 39.4113 23.008C40.114 23.008 40.692 22.9287 41.1453 22.77C41.644 22.6113 42.0746 22.43 42.4373 22.226C42.596 22.1353 42.7546 22.056 42.9133 21.988C43.0946 21.8973 43.2646 21.8067 43.4233 21.716C43.6726 21.5573 43.9333 21.478 44.2053 21.478C44.3866 21.478 44.5453 21.512 44.6813 21.58C44.7946 21.6253 44.8966 21.716 44.9873 21.852L46.2113 23.382C45.69 23.9713 45.1686 24.436 44.6473 24.776C44.0353 25.1613 43.4346 25.456 42.8453 25.66C42.2786 25.8413 41.6326 25.9887 40.9073 26.102C40.3406 26.1927 39.706 26.238 39.0033 26.238C37.7566 26.238 36.6346 26.0453 35.6373 25.66C34.64 25.2747 33.7333 24.674 32.9173 23.858C32.1466 23.0873 31.5346 22.1127 31.0813 20.934C30.6506 19.8007 30.4353 18.452 30.4353 16.888C30.4353 15.7547 30.628 14.644 31.0133 13.556C31.376 12.536 31.9313 11.618 32.6793 10.802C33.382 10.0313 34.2546 9.41933 35.2973 8.966C36.34 8.51267 37.5186 8.286 38.8333 8.286ZM38.9013 11.278C37.7 11.278 36.748 11.6293 36.0453 12.332C35.3653 13.012 34.9233 13.9867 34.7193 15.256H42.6073C42.6073 14.78 42.528 14.27 42.3693 13.726C42.2333 13.2953 42.0066 12.876 41.6893 12.468C41.3946 12.1053 41.0093 11.822 40.5333 11.618C40.012 11.3913 39.468 11.278 38.9013 11.278ZM59.8461 25.932C59.5968 25.932 59.3701 25.864 59.1661 25.728C58.9848 25.6147 58.8601 25.422 58.7921 25.15L58.4521 23.552C57.7721 24.3227 56.9674 24.9687 56.0381 25.49C55.1314 25.9887 54.0548 26.238 52.8081 26.238C51.8334 26.238 50.9721 26.0453 50.2241 25.66C49.4308 25.252 48.7508 24.674 48.1841 23.926C47.6174 23.2007 47.1754 22.2713 46.8581 21.138C46.5408 19.982 46.3821 18.7127 46.3821 17.33C46.3821 16.038 46.5521 14.8367 46.8921 13.726C47.2094 12.6833 47.7194 11.72 48.4221 10.836C49.0341 10.0653 49.8161 9.43067 50.7681 8.932C51.6748 8.456 52.7061 8.218 53.8621 8.218C54.8368 8.218 55.6754 8.37667 56.3781 8.694C57.1261 9.034 57.7381 9.442 58.2141 9.918V4.104L57.2281 3.934C57.1148 3.91133 57.0128 3.88867 56.9221 3.866C56.8541 3.84333 56.7861 3.832 56.7181 3.832L56.5141 3.798C55.9474 3.662 55.6641 3.31067 55.6641 2.744V0.737999H62.4301V22.6L63.3141 22.736L63.7561 22.838L63.9601 22.872C64.5268 23.008 64.8101 23.3593 64.8101 23.926V25.932H59.8461ZM58.2481 13.012C57.7948 12.4453 57.2734 12.0373 56.6841 11.788C56.0721 11.5387 55.4601 11.414 54.8481 11.414C54.2588 11.414 53.6921 11.5387 53.1481 11.788C52.6494 12.0147 52.2074 12.3773 51.8221 12.876C51.4821 13.352 51.2101 13.964 51.0061 14.712C50.8248 15.3693 50.7341 16.242 50.7341 17.33C50.7341 18.418 50.8134 19.2907 50.9721 19.948C51.1308 20.628 51.3688 21.1947 51.6861 21.648C52.0034 22.124 52.3661 22.4527 52.7741 22.634C53.2048 22.838 53.7034 22.94 54.2701 22.94C55.1768 22.94 55.9248 22.7587 56.5141 22.396C57.1488 22.0107 57.7268 21.4893 58.2481 20.832V13.012ZM72.3663 3.458C72.3663 3.77533 72.287 4.11533 72.1283 4.478C71.9923 4.79533 71.7997 5.07867 71.5503 5.328C71.2783 5.6 70.995 5.79267 70.7003 5.906C70.3603 6.042 70.009 6.11 69.6463 6.11C69.2837 6.11 68.9323 6.042 68.5923 5.906C68.3203 5.79267 68.0483 5.6 67.7763 5.328C67.527 5.07867 67.3343 4.79533 67.1983 4.478C67.0623 4.16067 66.9943 3.82067 66.9943 3.458C66.9943 3.09533 67.0623 2.744 67.1983 2.404C67.3117 2.10933 67.5043 1.826 67.7763 1.554C68.0257 1.30467 68.2977 1.12333 68.5923 1.01C69.0003 0.851332 69.3517 0.771999 69.6463 0.771999C69.941 0.771999 70.2923 0.851332 70.7003 1.01C71.0403 1.146 71.3237 1.32733 71.5503 1.554C71.8223 1.826 72.015 2.10933 72.1283 2.404C72.287 2.78933 72.3663 3.14067 72.3663 3.458ZM73.4543 22.94C74.021 23.076 74.3043 23.4273 74.3043 23.994V26H64.9543V23.994C64.9543 23.4273 65.2377 23.076 65.8043 22.94L66.0083 22.906L66.5183 22.804L67.5383 22.634V11.924L66.5183 11.754C66.405 11.7313 66.303 11.7087 66.2123 11.686C66.1443 11.6633 66.0763 11.652 66.0083 11.652L65.8043 11.618C65.2377 11.482 64.9543 11.1307 64.9543 10.564V8.558H71.7203V22.634L72.7403 22.804C72.8537 22.8267 72.9443 22.8493 73.0123 22.872C73.103 22.8947 73.1823 22.906 73.2503 22.906L73.4543 22.94ZM92.2757 28.652C92.8424 28.788 93.1257 29.1393 93.1257 29.706V31.712H83.6397V29.706C83.6397 29.1393 83.9231 28.788 84.4897 28.652L84.6937 28.618L85.2037 28.516L86.1897 28.346V23.824C85.5551 24.504 84.7731 25.082 83.8437 25.558C82.9371 26.0113 81.9171 26.238 80.7837 26.238C79.8544 26.238 78.9931 26.034 78.1997 25.626C77.3837 25.1953 76.7037 24.6287 76.1597 23.926C75.5704 23.178 75.1284 22.26 74.8337 21.172C74.5164 20.0387 74.3577 18.7693 74.3577 17.364C74.3577 16.072 74.5277 14.8707 74.8677 13.76C75.1851 12.7173 75.6951 11.754 76.3977 10.87C77.0777 10.0087 77.8597 9.36267 78.7437 8.932C79.6277 8.47867 80.6591 8.252 81.8377 8.252C84.3991 8.252 87.2551 8.56933 90.4057 9.204V28.346L91.4597 28.516C91.5957 28.5387 91.7091 28.5613 91.7997 28.584C91.8904 28.6067 91.9584 28.618 92.0037 28.618L92.2757 28.652ZM84.4897 22.396C85.1017 22.0107 85.6684 21.5007 86.1897 20.866V11.788C84.9431 11.5613 83.8211 11.448 82.8237 11.448C82.2117 11.448 81.6337 11.5727 81.0897 11.822C80.5684 12.0713 80.1377 12.434 79.7977 12.91C79.4804 13.318 79.2084 13.93 78.9817 14.746C78.7777 15.494 78.6757 16.3667 78.6757 17.364C78.6757 18.316 78.7664 19.1773 78.9477 19.948C79.1291 20.7187 79.3557 21.2967 79.6277 21.682C79.9451 22.1353 80.3191 22.464 80.7497 22.668C81.1804 22.872 81.6791 22.974 82.2457 22.974C83.1071 22.974 83.8551 22.7813 84.4897 22.396ZM102.276 17.5H93.436V13.964H102.276V17.5ZM110.246 3.458C110.246 3.77533 110.166 4.11533 110.008 4.478C109.872 4.79533 109.679 5.07867 109.43 5.328C109.158 5.6 108.874 5.79267 108.58 5.906C108.24 6.042 107.888 6.11 107.526 6.11C107.163 6.11 106.812 6.042 106.472 5.906C106.2 5.79267 105.928 5.6 105.656 5.328C105.406 5.07867 105.214 4.79533 105.078 4.478C104.942 4.16067 104.874 3.82067 104.874 3.458C104.874 3.09533 104.942 2.744 105.078 2.404C105.191 2.10933 105.384 1.826 105.656 1.554C105.905 1.30467 106.177 1.12333 106.472 1.01C106.88 0.851332 107.231 0.771999 107.526 0.771999C107.82 0.771999 108.172 0.851332 108.58 1.01C108.92 1.146 109.203 1.32733 109.43 1.554C109.702 1.826 109.894 2.10933 110.008 2.404C110.166 2.78933 110.246 3.14067 110.246 3.458ZM111.334 22.94C111.9 23.076 112.184 23.4273 112.184 23.994V26H102.834V23.994C102.834 23.4273 103.117 23.076 103.684 22.94L103.888 22.906L104.398 22.804L105.418 22.634V11.924L104.398 11.754C104.284 11.7313 104.182 11.7087 104.092 11.686C104.024 11.6633 103.956 11.652 103.888 11.652L103.684 11.618C103.117 11.482 102.834 11.1307 102.834 10.564V8.558H109.6V22.634L110.62 22.804C110.733 22.8267 110.824 22.8493 110.892 22.872C110.982 22.8947 111.062 22.906 111.13 22.906L111.334 22.94Z" fill="#E6E8E9"/>
<path d="M8.624 34.488C8.624 34.5787 8.57333 34.6267 8.472 34.632L8.192 34.648L6.512 40H6.144L4.472 35.088C4.45067 35.04 4.432 34.9733 4.416 34.888C4.4 34.9733 4.38133 35.04 4.36 35.088L2.68 40H2.32L0.632 34.648L0.352 34.632C0.245333 34.6213 0.192 34.5733 0.192 34.488V34.336H1.712V34.488C1.712 34.5733 1.65867 34.6213 1.552 34.632L1.088 34.648L2.448 39.096C2.464 39.1547 2.49067 39.2773 2.528 39.464L2.576 39.28C2.60267 39.168 2.616 39.1093 2.616 39.104L4.216 34.44C4.22133 34.4133 4.23733 34.3893 4.264 34.368C4.296 34.3467 4.33067 34.336 4.368 34.336H4.48C4.528 34.336 4.56 34.344 4.576 34.36C4.59733 34.376 4.616 34.4027 4.632 34.44L6.232 39.096C6.264 39.1973 6.29333 39.3173 6.32 39.456C6.35733 39.264 6.384 39.144 6.4 39.096L7.76 34.648L7.264 34.632C7.16267 34.6267 7.112 34.5787 7.112 34.488V34.336H8.624V34.488ZM10.6843 35.952C11.1696 35.952 11.551 36.1147 11.8283 36.44C12.111 36.7653 12.2523 37.1867 12.2523 37.704C12.2523 37.8053 12.215 37.856 12.1403 37.856H9.26831C9.26831 38.448 9.39098 38.912 9.63631 39.248C9.88165 39.584 10.2496 39.752 10.7403 39.752C10.9376 39.752 11.143 39.7173 11.3563 39.648C11.575 39.5787 11.7456 39.4907 11.8683 39.384C11.911 39.3413 11.9536 39.32 11.9963 39.32C12.0336 39.32 12.0603 39.3333 12.0763 39.36L12.1803 39.488C12.0416 39.6587 11.8283 39.7947 11.5403 39.896C11.2576 39.9973 10.9803 40.048 10.7083 40.048C10.1163 40.048 9.66298 39.8533 9.34831 39.464C9.03898 39.0693 8.88431 38.5573 8.88431 37.928C8.88431 37.5493 8.95631 37.2107 9.10031 36.912C9.24965 36.6133 9.46031 36.3787 9.73231 36.208C10.0043 36.0373 10.3216 35.952 10.6843 35.952ZM10.6923 36.24C10.287 36.24 9.96165 36.3627 9.71631 36.608C9.47631 36.848 9.33231 37.1813 9.28431 37.608H11.9083C11.9083 37.192 11.7963 36.8613 11.5723 36.616C11.3536 36.3653 11.0603 36.24 10.6923 36.24ZM17.1106 38.832C17.1106 39.2053 16.9772 39.504 16.7106 39.728C16.4492 39.952 16.1159 40.064 15.7106 40.064C15.3266 40.064 14.9346 39.9893 14.5346 39.84V38.872H14.7266C14.8386 38.872 14.8972 38.936 14.9026 39.064L14.9506 39.656C15.1586 39.7413 15.4172 39.784 15.7266 39.784C16.0199 39.784 16.2626 39.704 16.4546 39.544C16.6519 39.384 16.7506 39.168 16.7506 38.896C16.7506 38.6773 16.6599 38.512 16.4786 38.4C16.3026 38.2827 16.0226 38.168 15.6386 38.056C15.2759 37.9547 15.0012 37.8293 14.8146 37.68C14.6279 37.5253 14.5346 37.3093 14.5346 37.032C14.5346 36.8187 14.5932 36.632 14.7106 36.472C14.8332 36.3067 14.9932 36.1813 15.1906 36.096C15.3932 36.0053 15.6119 35.96 15.8466 35.96C16.1506 35.96 16.5026 36.0293 16.9026 36.168V37.12H16.7106C16.6039 37.12 16.5452 37.056 16.5346 36.928L16.4866 36.352C16.2786 36.2827 16.0679 36.248 15.8546 36.248C15.5932 36.248 15.3666 36.3173 15.1746 36.456C14.9879 36.5947 14.8946 36.7787 14.8946 37.008C14.8946 37.152 14.9399 37.272 15.0306 37.368C15.1212 37.464 15.2386 37.544 15.3826 37.608C15.5319 37.6667 15.7372 37.7333 15.9986 37.808C16.3506 37.9093 16.6226 38.04 16.8146 38.2C17.0119 38.3547 17.1106 38.5653 17.1106 38.832ZM19.2846 35.952C19.77 35.952 20.1513 36.1147 20.4286 36.44C20.7113 36.7653 20.8526 37.1867 20.8526 37.704C20.8526 37.8053 20.8153 37.856 20.7406 37.856H17.8686C17.8686 38.448 17.9913 38.912 18.2366 39.248C18.482 39.584 18.85 39.752 19.3406 39.752C19.538 39.752 19.7433 39.7173 19.9566 39.648C20.1753 39.5787 20.346 39.4907 20.4686 39.384C20.5113 39.3413 20.554 39.32 20.5966 39.32C20.634 39.32 20.6606 39.3333 20.6766 39.36L20.7806 39.488C20.642 39.6587 20.4286 39.7947 20.1406 39.896C19.858 39.9973 19.5806 40.048 19.3086 40.048C18.7166 40.048 18.2633 39.8533 17.9486 39.464C17.6393 39.0693 17.4846 38.5573 17.4846 37.928C17.4846 37.5493 17.5566 37.2107 17.7006 36.912C17.85 36.6133 18.0606 36.3787 18.3326 36.208C18.6046 36.0373 18.922 35.952 19.2846 35.952ZM19.2926 36.24C18.8873 36.24 18.562 36.3627 18.3166 36.608C18.0766 36.848 17.9326 37.1813 17.8846 37.608H20.5086C20.5086 37.192 20.3966 36.8613 20.1726 36.616C19.954 36.3653 19.6606 36.24 19.2926 36.24ZM23.0212 35.952C23.5065 35.952 23.8879 36.1147 24.1652 36.44C24.4479 36.7653 24.5892 37.1867 24.5892 37.704C24.5892 37.8053 24.5519 37.856 24.4772 37.856H21.6052C21.6052 38.448 21.7279 38.912 21.9732 39.248C22.2185 39.584 22.5865 39.752 23.0772 39.752C23.2745 39.752 23.4799 39.7173 23.6932 39.648C23.9119 39.5787 24.0825 39.4907 24.2052 39.384C24.2479 39.3413 24.2905 39.32 24.3332 39.32C24.3705 39.32 24.3972 39.3333 24.4132 39.36L24.5172 39.488C24.3785 39.6587 24.1652 39.7947 23.8772 39.896C23.5945 39.9973 23.3172 40.048 23.0452 40.048C22.4532 40.048 21.9999 39.8533 21.6852 39.464C21.3759 39.0693 21.2212 38.5573 21.2212 37.928C21.2212 37.5493 21.2932 37.2107 21.4372 36.912C21.5865 36.6133 21.7972 36.3787 22.0692 36.208C22.3412 36.0373 22.6585 35.952 23.0212 35.952ZM23.0292 36.24C22.6239 36.24 22.2985 36.3627 22.0532 36.608C21.8132 36.848 21.6692 37.1813 21.6212 37.608H24.2452C24.2452 37.192 24.1332 36.8613 23.9092 36.616C23.6905 36.3653 23.3972 36.24 23.0292 36.24ZM30.7594 36.168C30.7594 36.2533 30.7061 36.3013 30.5994 36.312L30.3274 36.32L28.1754 41.28C28.1381 41.3653 28.0794 41.408 27.9994 41.408H27.7274L28.4314 39.856L26.8794 36.32L26.6394 36.312C26.5328 36.3013 26.4794 36.2533 26.4794 36.168V36.016H27.8714V36.168C27.8714 36.2533 27.8181 36.3013 27.7114 36.312L27.3034 36.328L28.5434 39.216C28.5754 39.2853 28.6021 39.3653 28.6234 39.456C28.6394 39.392 28.6688 39.312 28.7114 39.216L29.9354 36.328L29.5274 36.312C29.4208 36.3013 29.3674 36.2533 29.3674 36.168V36.016H30.7594V36.168ZM32.8564 35.952C33.4218 35.952 33.8644 36.1413 34.1844 36.52C34.5044 36.8933 34.6644 37.3893 34.6644 38.008C34.6644 38.632 34.5044 39.128 34.1844 39.496C33.8644 39.864 33.4218 40.048 32.8564 40.048C32.2804 40.048 31.8324 39.864 31.5124 39.496C31.1924 39.1227 31.0324 38.6267 31.0324 38.008C31.0324 37.3893 31.1924 36.8933 31.5124 36.52C31.8378 36.1413 32.2858 35.952 32.8564 35.952ZM32.8564 39.752C33.3258 39.752 33.6778 39.5973 33.9124 39.288C34.1524 38.9733 34.2724 38.5467 34.2724 38.008C34.2724 37.4747 34.1524 37.0507 33.9124 36.736C33.6778 36.416 33.3258 36.256 32.8564 36.256C32.3818 36.256 32.0244 36.4133 31.7844 36.728C31.5498 37.0373 31.4324 37.464 31.4324 38.008C31.4324 38.5467 31.5498 38.9733 31.7844 39.288C32.0191 39.5973 32.3764 39.752 32.8564 39.752ZM39.0186 39.696C39.1253 39.7067 39.1786 39.7547 39.1786 39.84V40H38.3946C38.3146 40 38.2746 39.9653 38.2746 39.896L38.2426 39.304C38.0506 39.544 37.832 39.7307 37.5866 39.864C37.3413 39.9973 37.0773 40.064 36.7946 40.064C36.3626 40.064 36.032 39.928 35.8026 39.656C35.5786 39.384 35.4666 39.0187 35.4666 38.56V36.336L35.0506 36.32C34.944 36.3093 34.8906 36.2613 34.8906 36.176V36.024H35.4666L35.8506 36.016V38.56C35.8506 38.9387 35.936 39.2347 36.1066 39.448C36.2826 39.656 36.544 39.76 36.8906 39.76C37.1413 39.76 37.3813 39.6933 37.6106 39.56C37.84 39.4267 38.0426 39.2427 38.2186 39.008V36.336L37.8026 36.32C37.696 36.3093 37.6426 36.2613 37.6426 36.176V36.024H38.2186L38.6026 36.016V39.68L39.0186 39.696ZM39.8959 40.952C39.8745 40.9307 39.8639 40.9067 39.8639 40.88C39.8639 40.8587 39.8772 40.8347 39.9039 40.808C39.9999 40.712 40.0905 40.5787 40.1759 40.408C40.2612 40.2373 40.3065 40.1013 40.3119 40C40.2692 40.0107 40.2319 40.016 40.1999 40.016C40.1039 40.016 40.0212 39.9813 39.9519 39.912C39.8825 39.8427 39.8479 39.76 39.8479 39.664C39.8479 39.568 39.8825 39.488 39.9519 39.424C40.0212 39.3547 40.1039 39.32 40.1999 39.32C40.3119 39.32 40.3999 39.36 40.4639 39.44C40.5279 39.52 40.5599 39.6213 40.5599 39.744C40.5599 40.1867 40.3599 40.608 39.9599 41.008L39.8959 40.952ZM49.0539 36.176C49.0539 36.2613 49.0005 36.3093 48.8939 36.32L48.6139 36.328L47.3899 40H47.1099C47.0619 40 47.0299 39.9707 47.0139 39.912L45.9259 36.68C45.8939 36.584 45.8725 36.5067 45.8619 36.448L45.7979 36.68L44.6939 39.912C44.6779 39.9707 44.6459 40 44.5979 40H44.3339L43.1019 36.328L42.8379 36.32C42.7365 36.3147 42.6859 36.2667 42.6859 36.176V36.024H44.0779V36.176C44.0779 36.2613 44.0245 36.3093 43.9179 36.32L43.5019 36.336L44.4379 39.256L44.5099 39.6L44.6139 39.256L45.6779 36.088C45.6939 36.0293 45.7312 36 45.7899 36H45.9499C46.0085 36 46.0459 36.0293 46.0619 36.088L47.1179 39.256C47.1232 39.2773 47.1552 39.392 47.2139 39.6L47.2539 39.44C47.2752 39.3547 47.2885 39.2933 47.2939 39.256L48.2299 36.336L47.8219 36.32C47.7152 36.3093 47.6619 36.2613 47.6619 36.176V36.024H49.0539V36.176ZM51.1168 35.952C51.6021 35.952 51.9835 36.1147 52.2608 36.44C52.5435 36.7653 52.6848 37.1867 52.6848 37.704C52.6848 37.8053 52.6475 37.856 52.5728 37.856H49.7008C49.7008 38.448 49.8235 38.912 50.0688 39.248C50.3141 39.584 50.6821 39.752 51.1728 39.752C51.3701 39.752 51.5755 39.7173 51.7888 39.648C52.0075 39.5787 52.1781 39.4907 52.3008 39.384C52.3435 39.3413 52.3861 39.32 52.4288 39.32C52.4661 39.32 52.4928 39.3333 52.5088 39.36L52.6128 39.488C52.4741 39.6587 52.2608 39.7947 51.9728 39.896C51.6901 39.9973 51.4128 40.048 51.1408 40.048C50.5488 40.048 50.0955 39.8533 49.7808 39.464C49.4715 39.0693 49.3168 38.5573 49.3168 37.928C49.3168 37.5493 49.3888 37.2107 49.5328 36.912C49.6821 36.6133 49.8928 36.3787 50.1648 36.208C50.4368 36.0373 50.7541 35.952 51.1168 35.952ZM51.1248 36.24C50.7195 36.24 50.3941 36.3627 50.1488 36.608C49.9088 36.848 49.7648 37.1813 49.7168 37.608H52.3408C52.3408 37.192 52.2288 36.8613 52.0048 36.616C51.7861 36.3653 51.4928 36.24 51.1248 36.24ZM58.9591 39.696C59.0604 39.7013 59.1111 39.7493 59.1111 39.84V40H58.1591V37.456C58.1591 37.072 58.0737 36.7787 57.9031 36.576C57.7324 36.368 57.4711 36.264 57.1191 36.264C56.6071 36.264 56.1644 36.5147 55.7911 37.016V39.68L56.2071 39.696C56.3137 39.7067 56.3671 39.7547 56.3671 39.84V40H54.8311V39.84C54.8311 39.7547 54.8844 39.7067 54.9911 39.696L55.4071 39.68V34.496L54.9911 34.48C54.8844 34.4693 54.8311 34.4213 54.8311 34.336V34.184H55.7911V36.704C55.9991 36.4533 56.2177 36.2667 56.4471 36.144C56.6764 36.0213 56.9324 35.96 57.2151 35.96C57.6524 35.96 57.9804 36.0933 58.1991 36.36C58.4231 36.6213 58.5351 36.9867 58.5351 37.456V39.68L58.9591 39.696ZM61.2952 35.952C61.7806 35.952 62.1619 36.1147 62.4392 36.44C62.7219 36.7653 62.8633 37.1867 62.8633 37.704C62.8633 37.8053 62.8259 37.856 62.7513 37.856H59.8792C59.8792 38.448 60.0019 38.912 60.2472 39.248C60.4926 39.584 60.8606 39.752 61.3512 39.752C61.5486 39.752 61.7539 39.7173 61.9672 39.648C62.1859 39.5787 62.3566 39.4907 62.4792 39.384C62.5219 39.3413 62.5646 39.32 62.6072 39.32C62.6446 39.32 62.6712 39.3333 62.6872 39.36L62.7912 39.488C62.6526 39.6587 62.4392 39.7947 62.1512 39.896C61.8686 39.9973 61.5912 40.048 61.3192 40.048C60.7272 40.048 60.2739 39.8533 59.9592 39.464C59.6499 39.0693 59.4952 38.5573 59.4952 37.928C59.4952 37.5493 59.5672 37.2107 59.7112 36.912C59.8606 36.6133 60.0712 36.3787 60.3432 36.208C60.6152 36.0373 60.9326 35.952 61.2952 35.952ZM61.3032 36.24C60.8979 36.24 60.5726 36.3627 60.3272 36.608C60.0872 36.848 59.9432 37.1813 59.8952 37.608H62.5192C62.5192 37.192 62.4072 36.8613 62.1832 36.616C61.9646 36.3653 61.6712 36.24 61.3032 36.24ZM66.5278 39.696C66.6345 39.7067 66.6878 39.7547 66.6878 39.84V40H66.0078C65.9225 40 65.8718 39.9627 65.8558 39.888L65.7998 39.376C65.5331 39.6267 65.2931 39.8053 65.0798 39.912C64.8718 40.0133 64.6158 40.064 64.3118 40.064C63.9918 40.064 63.7331 39.9733 63.5358 39.792C63.3438 39.6053 63.2478 39.352 63.2478 39.032C63.2478 38.6053 63.5038 38.2987 64.0158 38.112C64.5278 37.9253 65.1171 37.8293 65.7838 37.824V37.408C65.7838 37.0347 65.7038 36.752 65.5438 36.56C65.3891 36.3627 65.1545 36.264 64.8398 36.264C64.6478 36.264 64.4531 36.3067 64.2558 36.392C64.0585 36.472 63.9011 36.5707 63.7838 36.688C63.7251 36.7467 63.6691 36.776 63.6158 36.776C63.5731 36.776 63.5385 36.752 63.5118 36.704L63.4478 36.584C63.6611 36.3707 63.8825 36.2133 64.1118 36.112C64.3465 36.0053 64.6025 35.952 64.8798 35.952C65.3011 35.952 65.6185 36.0853 65.8318 36.352C66.0505 36.6133 66.1598 36.9653 66.1598 37.408V39.688L66.5278 39.696ZM65.7838 38.08C65.2078 38.0853 64.7011 38.16 64.2638 38.304C63.8318 38.4427 63.6158 38.6827 63.6158 39.024C63.6158 39.264 63.6851 39.4507 63.8238 39.584C63.9678 39.7173 64.1625 39.784 64.4078 39.784C64.7011 39.784 64.9438 39.7333 65.1358 39.632C65.3278 39.5253 65.5438 39.352 65.7838 39.112V38.08ZM69.4454 35.952C69.6694 35.952 69.8747 36.0027 70.0614 36.104L69.9894 36.304C69.9787 36.3467 69.9547 36.3813 69.9174 36.408C69.8854 36.4293 69.848 36.432 69.8054 36.416C69.7307 36.3893 69.6614 36.368 69.5974 36.352C69.5387 36.336 69.464 36.328 69.3734 36.328C69.0747 36.328 68.8267 36.4213 68.6294 36.608C68.432 36.7947 68.2747 37.064 68.1574 37.416V39.68L68.5814 39.696C68.6347 39.7013 68.672 39.7147 68.6934 39.736C68.72 39.7573 68.7334 39.792 68.7334 39.84V40H67.2054V39.84C67.2054 39.792 67.216 39.7573 67.2374 39.736C67.264 39.7147 67.304 39.7013 67.3574 39.696L67.7814 39.68V36.328L67.3494 36.312C67.296 36.3067 67.256 36.2933 67.2294 36.272C67.208 36.2507 67.1974 36.216 67.1974 36.168V36.016H67.9814C68.0294 36.016 68.0614 36.024 68.0774 36.04C68.0987 36.0613 68.1094 36.0933 68.1094 36.136L68.1414 36.984C68.4134 36.296 68.848 35.952 69.4454 35.952ZM76.1394 36.168C76.1394 36.2533 76.0861 36.3013 75.9794 36.312L75.7074 36.32L73.5554 41.28C73.5181 41.3653 73.4594 41.408 73.3794 41.408H73.1074L73.8114 39.856L72.2594 36.32L72.0194 36.312C71.9128 36.3013 71.8594 36.2533 71.8594 36.168V36.016H73.2514V36.168C73.2514 36.2533 73.1981 36.3013 73.0914 36.312L72.6834 36.328L73.9234 39.216C73.9554 39.2853 73.9821 39.3653 74.0034 39.456C74.0194 39.392 74.0488 39.312 74.0914 39.216L75.3154 36.328L74.9074 36.312C74.8008 36.3013 74.7474 36.2533 74.7474 36.168V36.016H76.1394V36.168ZM78.2364 35.952C78.8018 35.952 79.2444 36.1413 79.5644 36.52C79.8844 36.8933 80.0444 37.3893 80.0444 38.008C80.0444 38.632 79.8844 39.128 79.5644 39.496C79.2444 39.864 78.8018 40.048 78.2364 40.048C77.6604 40.048 77.2124 39.864 76.8924 39.496C76.5724 39.1227 76.4124 38.6267 76.4124 38.008C76.4124 37.3893 76.5724 36.8933 76.8924 36.52C77.2178 36.1413 77.6658 35.952 78.2364 35.952ZM78.2364 39.752C78.7058 39.752 79.0578 39.5973 79.2924 39.288C79.5324 38.9733 79.6524 38.5467 79.6524 38.008C79.6524 37.4747 79.5324 37.0507 79.2924 36.736C79.0578 36.416 78.7058 36.256 78.2364 36.256C77.7618 36.256 77.4044 36.4133 77.1644 36.728C76.9298 37.0373 76.8124 37.464 76.8124 38.008C76.8124 38.5467 76.9298 38.9733 77.1644 39.288C77.3991 39.5973 77.7564 39.752 78.2364 39.752ZM84.3986 39.696C84.5053 39.7067 84.5586 39.7547 84.5586 39.84V40H83.7746C83.6946 40 83.6546 39.9653 83.6546 39.896L83.6226 39.304C83.4306 39.544 83.212 39.7307 82.9666 39.864C82.7213 39.9973 82.4573 40.064 82.1746 40.064C81.7426 40.064 81.412 39.928 81.1826 39.656C80.9586 39.384 80.8466 39.0187 80.8466 38.56V36.336L80.4306 36.32C80.324 36.3093 80.2706 36.2613 80.2706 36.176V36.024H80.8466L81.2306 36.016V38.56C81.2306 38.9387 81.316 39.2347 81.4866 39.448C81.6626 39.656 81.924 39.76 82.2706 39.76C82.5213 39.76 82.7613 39.6933 82.9906 39.56C83.22 39.4267 83.4226 39.2427 83.5986 39.008V36.336L83.1826 36.32C83.076 36.3093 83.0226 36.2613 83.0226 36.176V36.024H83.5986L83.9826 36.016V39.68L84.3986 39.696ZM85.2759 40.952C85.2545 40.9307 85.2439 40.9067 85.2439 40.88C85.2439 40.8587 85.2572 40.8347 85.2839 40.808C85.3799 40.712 85.4705 40.5787 85.5559 40.408C85.6412 40.2373 85.6865 40.1013 85.6919 40C85.6492 40.0107 85.6119 40.016 85.5799 40.016C85.4839 40.016 85.4012 39.9813 85.3319 39.912C85.2625 39.8427 85.2279 39.76 85.2279 39.664C85.2279 39.568 85.2625 39.488 85.3319 39.424C85.4012 39.3547 85.4839 39.32 85.5799 39.32C85.6919 39.32 85.7799 39.36 85.8439 39.44C85.9079 39.52 85.9399 39.6213 85.9399 39.744C85.9399 40.1867 85.7399 40.608 85.3399 41.008L85.2759 40.952ZM94.4339 36.176C94.4339 36.2613 94.3805 36.3093 94.2739 36.32L93.9939 36.328L92.7699 40H92.4899C92.4419 40 92.4099 39.9707 92.3939 39.912L91.3059 36.68C91.2739 36.584 91.2525 36.5067 91.2419 36.448L91.1779 36.68L90.0739 39.912C90.0579 39.9707 90.0259 40 89.9779 40H89.7139L88.4819 36.328L88.2179 36.32C88.1165 36.3147 88.0659 36.2667 88.0659 36.176V36.024H89.4579V36.176C89.4579 36.2613 89.4045 36.3093 89.2979 36.32L88.8819 36.336L89.8179 39.256L89.8899 39.6L89.9939 39.256L91.0579 36.088C91.0739 36.0293 91.1112 36 91.1699 36H91.3299C91.3885 36 91.4259 36.0293 91.4419 36.088L92.4979 39.256C92.5032 39.2773 92.5352 39.392 92.5939 39.6L92.6339 39.44C92.6552 39.3547 92.6685 39.2933 92.6739 39.256L93.6099 36.336L93.2019 36.32C93.0952 36.3093 93.0419 36.2613 93.0419 36.176V36.024H94.4339V36.176ZM96.4968 35.952C96.9821 35.952 97.3635 36.1147 97.6408 36.44C97.9235 36.7653 98.0648 37.1867 98.0648 37.704C98.0648 37.8053 98.0275 37.856 97.9528 37.856H95.0808C95.0808 38.448 95.2035 38.912 95.4488 39.248C95.6941 39.584 96.0621 39.752 96.5528 39.752C96.7501 39.752 96.9555 39.7173 97.1688 39.648C97.3875 39.5787 97.5581 39.4907 97.6808 39.384C97.7235 39.3413 97.7661 39.32 97.8088 39.32C97.8461 39.32 97.8728 39.3333 97.8888 39.36L97.9928 39.488C97.8541 39.6587 97.6408 39.7947 97.3528 39.896C97.0701 39.9973 96.7928 40.048 96.5208 40.048C95.9288 40.048 95.4755 39.8533 95.1608 39.464C94.8515 39.0693 94.6968 38.5573 94.6968 37.928C94.6968 37.5493 94.7688 37.2107 94.9128 36.912C95.0621 36.6133 95.2728 36.3787 95.5448 36.208C95.8168 36.0373 96.1341 35.952 96.4968 35.952ZM96.5048 36.24C96.0995 36.24 95.7741 36.3627 95.5288 36.608C95.2888 36.848 95.1448 37.1813 95.0968 37.608H97.7208C97.7208 37.192 97.6088 36.8613 97.3848 36.616C97.1661 36.3653 96.8728 36.24 96.5048 36.24ZM103.195 39.488C103.046 39.6747 102.846 39.816 102.595 39.912C102.35 40.008 102.096 40.056 101.835 40.056C101.483 40.056 101.176 39.968 100.915 39.792C100.659 39.6107 100.462 39.3653 100.323 39.056C100.19 38.7467 100.123 38.3973 100.123 38.008C100.123 37.608 100.192 37.2533 100.331 36.944C100.47 36.6347 100.675 36.3947 100.947 36.224C101.219 36.048 101.544 35.96 101.923 35.96C102.259 35.96 102.632 36.0427 103.043 36.208V37.208H102.851C102.744 37.208 102.686 37.144 102.675 37.016C102.675 37 102.67 36.9387 102.659 36.832C102.648 36.72 102.638 36.5733 102.627 36.392C102.366 36.3013 102.139 36.256 101.947 36.256C101.483 36.256 101.128 36.416 100.883 36.736C100.638 37.056 100.515 37.48 100.515 38.008C100.515 38.5307 100.635 38.952 100.875 39.272C101.115 39.592 101.454 39.752 101.891 39.752C102.083 39.752 102.272 39.7173 102.459 39.648C102.646 39.5787 102.792 39.4907 102.899 39.384C102.942 39.3413 102.982 39.32 103.019 39.32C103.051 39.32 103.075 39.3333 103.091 39.36L103.195 39.488ZM106.851 39.696C106.958 39.7067 107.011 39.7547 107.011 39.84V40H106.331C106.246 40 106.195 39.9627 106.179 39.888L106.123 39.376C105.856 39.6267 105.616 39.8053 105.403 39.912C105.195 40.0133 104.939 40.064 104.635 40.064C104.315 40.064 104.056 39.9733 103.859 39.792C103.667 39.6053 103.571 39.352 103.571 39.032C103.571 38.6053 103.827 38.2987 104.339 38.112C104.851 37.9253 105.44 37.8293 106.107 37.824V37.408C106.107 37.0347 106.027 36.752 105.867 36.56C105.712 36.3627 105.478 36.264 105.163 36.264C104.971 36.264 104.776 36.3067 104.579 36.392C104.382 36.472 104.224 36.5707 104.107 36.688C104.048 36.7467 103.992 36.776 103.939 36.776C103.896 36.776 103.862 36.752 103.835 36.704L103.771 36.584C103.984 36.3707 104.206 36.2133 104.435 36.112C104.67 36.0053 104.926 35.952 105.203 35.952C105.624 35.952 105.942 36.0853 106.155 36.352C106.374 36.6133 106.483 36.9653 106.483 37.408V39.688L106.851 39.696ZM106.107 38.08C105.531 38.0853 105.024 38.16 104.587 38.304C104.155 38.4427 103.939 38.6827 103.939 39.024C103.939 39.264 104.008 39.4507 104.147 39.584C104.291 39.7173 104.486 39.784 104.731 39.784C105.024 39.784 105.267 39.7333 105.459 39.632C105.651 39.5253 105.867 39.352 106.107 39.112V38.08ZM109.769 35.952C109.993 35.952 110.198 36.0027 110.385 36.104L110.313 36.304C110.302 36.3467 110.278 36.3813 110.241 36.408C110.209 36.4293 110.171 36.432 110.129 36.416C110.054 36.3893 109.985 36.368 109.921 36.352C109.862 36.336 109.787 36.328 109.697 36.328C109.398 36.328 109.15 36.4213 108.953 36.608C108.755 36.7947 108.598 37.064 108.481 37.416V39.68L108.905 39.696C108.958 39.7013 108.995 39.7147 109.017 39.736C109.043 39.7573 109.057 39.792 109.057 39.84V40H107.529V39.84C107.529 39.792 107.539 39.7573 107.561 39.736C107.587 39.7147 107.627 39.7013 107.681 39.696L108.105 39.68V36.328L107.673 36.312C107.619 36.3067 107.579 36.2933 107.553 36.272C107.531 36.2507 107.521 36.216 107.521 36.168V36.016H108.305C108.353 36.016 108.385 36.024 108.401 36.04C108.422 36.0613 108.433 36.0933 108.433 36.136L108.465 36.984C108.737 36.296 109.171 35.952 109.769 35.952ZM112.461 35.952C112.946 35.952 113.328 36.1147 113.605 36.44C113.888 36.7653 114.029 37.1867 114.029 37.704C114.029 37.8053 113.992 37.856 113.917 37.856H111.045C111.045 38.448 111.168 38.912 111.413 39.248C111.658 39.584 112.026 39.752 112.517 39.752C112.714 39.752 112.92 39.7173 113.133 39.648C113.352 39.5787 113.522 39.4907 113.645 39.384C113.688 39.3413 113.73 39.32 113.773 39.32C113.81 39.32 113.837 39.3333 113.853 39.36L113.957 39.488C113.818 39.6587 113.605 39.7947 113.317 39.896C113.034 39.9973 112.757 40.048 112.485 40.048C111.893 40.048 111.44 39.8533 111.125 39.464C110.816 39.0693 110.661 38.5573 110.661 37.928C110.661 37.5493 110.733 37.2107 110.877 36.912C111.026 36.6133 111.237 36.3787 111.509 36.208C111.781 36.0373 112.098 35.952 112.461 35.952ZM112.469 36.24C112.064 36.24 111.738 36.3627 111.493 36.608C111.253 36.848 111.109 37.1813 111.061 37.608H113.685C113.685 37.192 113.573 36.8613 113.349 36.616C113.13 36.3653 112.837 36.24 112.469 36.24Z" fill="#E6E8E9"/>
</svg>
