<svg width="34" height="34" viewBox="0 0 34 34" fill="none" xmlns="http://www.w3.org/2000/svg">
<path opacity="0.4" d="M21.6554 5.66675C18.6749 5.66675 16.2588 8.2038 16.2588 11.3334C16.2588 11.8063 16.3139 12.2657 16.4179 12.7049C13.5521 12.7049 9.23555 12.1254 5.63056 8.51369C5.15118 8.03342 4.26722 8.35453 4.30047 9.03229C4.83473 19.9222 9.49852 23.0987 11.9002 23.2964C10.3494 24.8281 8.09649 26.0372 5.82953 26.5798C5.23123 26.7231 5.08344 27.378 5.66847 27.5683C7.29059 28.0959 9.61242 28.2991 10.8622 28.3334C19.7034 28.3334 26.8893 20.8919 27.0492 11.6483C28.21 10.8935 28.9535 9.25445 29.3713 8.09336C29.473 7.81059 29.0096 7.48111 28.7322 7.59661C27.8651 7.95761 26.7642 8.04319 25.8265 7.73764C24.8368 6.47321 23.3357 5.66675 21.6554 5.66675Z" fill="#E6E8E9"/>
</svg>
