<svg width="34" height="34" viewBox="0 0 34 34" fill="none" xmlns="http://www.w3.org/2000/svg">
<path opacity="0.4" d="M16.9999 31.1666C24.8239 31.1666 31.1666 24.824 31.1666 16.9999C31.1666 9.17588 24.8239 2.83325 16.9999 2.83325C9.17588 2.83325 2.83325 9.17588 2.83325 16.9999C2.83325 19.1411 3.30829 21.1714 4.15872 22.9911L3.14915 29.2179C2.994 30.1749 3.82423 31.0014 4.78045 30.842L10.9505 29.8137C12.7851 30.6813 14.8358 31.1666 16.9999 31.1666Z" fill="#E6E8E9"/>
<path d="M22.6666 21.4073V20.7894C22.6666 20.0218 22.1993 19.3315 21.4866 19.0464L20.8256 18.7821C20.2593 18.5555 19.6324 18.6907 19.2102 19.0867C18.9772 19.3052 18.672 19.4729 18.3701 19.3684C17.8019 19.1719 16.8638 18.7527 16.0555 17.9444C15.2471 17.136 14.8279 16.1979 14.6314 15.6298C14.527 15.3279 14.6947 15.0226 14.9132 14.7896C15.3091 14.3674 15.4443 13.7405 15.2178 13.1742L14.9534 12.5133C14.6683 11.8006 13.9781 11.3333 13.2105 11.3333H12.5925C11.897 11.3333 11.3333 11.897 11.3333 12.5925C11.3333 18.1563 15.8436 22.6666 21.4073 22.6666C22.1028 22.6666 22.6666 22.1028 22.6666 21.4073Z" fill="#E6E8E9"/>
</svg>
