<svg width="50" height="50" viewBox="0 0 50 50" fill="none" xmlns="http://www.w3.org/2000/svg">
<path d="M30.186 5.09216L30.1856 5.09258L26.5909 8.69038L25.8844 9.39757L26.5913 10.1044L39.9568 23.4667L40.6758 24.1855L41.3826 23.4548L44.912 19.8064C46.8599 17.8548 47.9541 15.2099 47.9541 12.4523C47.9541 9.69194 46.8577 7.04456 44.9061 5.09238L44.1989 5.79938L44.9059 5.09216C42.9537 3.14057 40.3064 2.04422 37.546 2.04422C34.7856 2.04422 32.1382 3.14057 30.186 5.09216ZM39.1721 25.7063L39.8792 24.9992L39.1721 24.292L25.791 10.9109L25.0832 10.2031L24.3761 10.9115L10.9227 24.3899L10.217 25.097L10.9234 25.8035L24.292 39.1721L24.9992 39.8792L25.7063 39.1721L39.1721 25.7063ZM10.1168 26.6038L9.41219 25.8992L8.70509 26.6013L5.09474 30.1866L5.08219 30.1991L5.07009 30.212C3.22022 32.1837 2.21004 34.7978 2.2533 37.5012C2.29656 40.2045 3.38987 42.785 5.30189 44.6965C7.2139 46.6081 9.79462 47.7008 12.498 47.7434C15.2013 47.7861 17.8152 46.7753 19.7865 44.9249L19.798 44.9141L19.8092 44.9029L19.822 44.8902L23.4545 41.3798L22.7626 40.6639L22.7627 40.6639L23.4698 39.9568L23.4667 39.9536L22.7715 39.2585L10.1168 26.6038ZM45.7106 20.6148L45.7068 20.6188L41.0799 25.4086L25.3897 41.0987L20.6185 45.7101L20.6148 45.7137C18.44 47.8379 15.5152 49.0186 12.4752 48.9998C9.43516 48.9809 6.52525 47.7639 4.37694 45.613C2.22862 43.462 1.01525 40.5506 1.00014 37.5105C0.985039 34.4705 2.16942 31.5472 4.29626 29.375L4.39656 29.2725L9.00964 24.6993L9.12646 24.5835L9.13081 24.5748L29.3759 4.29233C31.5477 2.16796 34.4693 0.985048 37.5074 1.00014C40.5474 1.01525 43.4588 2.22862 45.6098 4.37694C47.7608 6.52525 48.9778 9.43516 48.9966 12.4752C49.0155 15.5152 47.8347 18.44 45.7106 20.6148Z" fill="#F8FAFF" stroke="#F8FAFF" stroke-width="2"/>
<path d="M17.3456 23.8888C17.4956 24.0332 17.6153 24.2061 17.6978 24.3974C17.7802 24.5886 17.8238 24.7943 17.8259 25.0025C17.828 25.2108 17.7886 25.4173 17.71 25.6102C17.6314 25.803 17.5152 25.9783 17.3682 26.1258C17.2211 26.2732 17.0462 26.3899 16.8536 26.4691C16.6609 26.5482 16.4545 26.5882 16.2462 26.5867C16.038 26.5851 15.8322 26.5422 15.6407 26.4603C15.4492 26.3784 15.276 26.2591 15.1311 26.1096C14.9853 25.9639 14.8696 25.791 14.7906 25.6007C14.7116 25.4104 14.6709 25.2063 14.6707 25.0003C14.6704 24.5841 14.8355 24.1848 15.1295 23.8903C15.4236 23.5958 15.8226 23.4302 16.2388 23.4299C16.655 23.4296 17.0543 23.5947 17.3488 23.8888H17.3456ZM21.7841 19.4535C21.9339 19.5981 22.0533 19.7712 22.1355 19.9625C22.2177 20.1539 22.261 20.3597 22.2628 20.5679C22.2646 20.7762 22.2249 20.9827 22.1461 21.1754C22.0672 21.3682 21.9508 21.5433 21.8035 21.6906C21.6563 21.8378 21.4811 21.9543 21.2884 22.0331C21.0957 22.112 20.8891 22.1517 20.6809 22.1499C20.4726 22.1481 20.2668 22.1048 20.0755 22.0226C19.8842 21.9404 19.7111 21.8209 19.5664 21.6711C19.2807 21.3753 19.1226 20.9792 19.1262 20.5679C19.1298 20.1567 19.2947 19.7634 19.5855 19.4726C19.8763 19.1818 20.2697 19.0168 20.6809 19.0133C21.0921 19.0097 21.4883 19.1678 21.7841 19.4535ZM26.2225 15.0182C26.3681 15.164 26.4836 15.3371 26.5623 15.5275C26.641 15.7179 26.6815 15.922 26.6813 16.1281C26.6812 16.3342 26.6405 16.5382 26.5615 16.7285C26.4825 16.9189 26.3668 17.0918 26.2209 17.2374C26.0751 17.383 25.902 17.4985 25.7116 17.5772C25.5212 17.6559 25.3171 17.6964 25.111 17.6962C24.9049 17.6961 24.7009 17.6553 24.5106 17.5763C24.3202 17.4973 24.1473 17.3816 24.0017 17.2358C23.716 16.94 23.558 16.5439 23.5615 16.1326C23.5651 15.7214 23.73 15.3281 24.0208 15.0373C24.3116 14.7465 24.705 14.5815 25.1162 14.578C25.5274 14.5744 25.9236 14.7325 26.2194 15.0182H26.2225ZM26.2225 32.7625C26.3681 32.9083 26.4836 33.0814 26.5623 33.2718C26.641 33.4623 26.6815 33.6664 26.6813 33.8724C26.6812 34.0785 26.6405 34.2825 26.5615 34.4729C26.4825 34.6632 26.3668 34.8361 26.2209 34.9817C26.0751 35.1273 25.902 35.2428 25.7116 35.3215C25.5212 35.4003 25.3171 35.4407 25.111 35.4406C24.9049 35.4404 24.7009 35.3997 24.5106 35.3207C24.3202 35.2417 24.1473 35.126 24.0017 34.9802C23.716 34.6844 23.558 34.2882 23.5615 33.877C23.5651 33.4658 23.73 33.0724 24.0208 32.7816C24.3116 32.4908 24.705 32.3259 25.1162 32.3223C25.5274 32.3187 25.9236 32.4768 26.2194 32.7625H26.2225ZM30.6547 28.3241C30.9492 28.6182 31.1148 29.0172 31.1151 29.4334C31.1154 29.8495 30.9503 30.2488 30.6562 30.5433C30.3622 30.8378 29.9631 31.0034 29.547 31.0037C29.1308 31.004 28.7315 30.8389 28.437 30.5449C28.1513 30.2491 27.9932 29.8529 27.9968 29.4417C28.0004 29.0305 28.1653 28.6371 28.4561 28.3463C28.7469 28.0555 29.1403 27.8906 29.5515 27.887C29.9627 27.8834 30.3589 28.0415 30.6547 28.3272V28.3241ZM35.09 23.8888C35.24 24.0332 35.3597 24.2061 35.4421 24.3974C35.5246 24.5886 35.5681 24.7943 35.5702 25.0025C35.5723 25.2108 35.5329 25.4173 35.4543 25.6102C35.3758 25.803 35.2596 25.9783 35.1125 26.1258C34.9655 26.2732 34.7905 26.3899 34.5979 26.4691C34.4053 26.5482 34.1988 26.5882 33.9906 26.5867C33.7823 26.5851 33.5765 26.5422 33.385 26.4603C33.1936 26.3784 33.0203 26.2591 32.8755 26.1096C32.7296 25.9639 32.6139 25.791 32.5349 25.6007C32.4559 25.4104 32.4152 25.2063 32.4151 25.0003C32.4148 24.5841 32.5798 24.1848 32.8739 23.8903C33.168 23.5958 33.567 23.4302 33.9832 23.4299C34.3994 23.4296 34.7986 23.5947 35.0931 23.8888H35.09ZM21.7841 28.3241C21.9299 28.4697 22.0456 28.6426 22.1246 28.8329C22.2036 29.0233 22.2443 29.2273 22.2445 29.4334C22.2446 29.6394 22.2042 29.8435 22.1254 30.034C22.0467 30.2244 21.9312 30.3975 21.7856 30.5433C21.64 30.6891 21.4671 30.8048 21.2768 30.8838C21.0865 30.9628 20.8824 31.0035 20.6764 31.0037C20.4703 31.0038 20.2662 30.9634 20.0758 30.8847C19.8853 30.8059 19.7122 30.6905 19.5664 30.5449C19.2807 30.2491 19.1226 29.8529 19.1262 29.4417C19.1298 29.0305 19.2947 28.6371 19.5855 28.3463C19.8763 28.0555 20.2697 27.8906 20.6809 27.887C21.0921 27.8834 21.4883 28.0415 21.7841 28.3272V28.3241ZM26.2225 23.8888C26.3683 24.0346 26.484 24.2077 26.5629 24.3982C26.6418 24.5887 26.6824 24.7929 26.6824 24.9992C26.6824 25.2054 26.6418 25.4096 26.5629 25.6001C26.484 25.7906 26.3683 25.9637 26.2225 26.1096C26.0767 26.2554 25.9036 26.371 25.7131 26.45C25.5225 26.5289 25.3183 26.5695 25.1121 26.5695C24.9059 26.5695 24.7017 26.5289 24.5112 26.45C24.3207 26.371 24.1475 26.2554 24.0017 26.1096C23.8559 25.9639 23.7402 25.791 23.6612 25.6007C23.5822 25.4104 23.5415 25.2063 23.5413 25.0003C23.541 24.5841 23.7061 24.1848 24.0002 23.8903C24.2942 23.5958 24.6933 23.4302 25.1094 23.4299C25.5256 23.4296 25.9249 23.5947 26.2194 23.8888H26.2225ZM30.6547 19.4535C30.8045 19.5981 30.9239 19.7712 31.0061 19.9625C31.0883 20.1539 31.1316 20.3597 31.1334 20.5679C31.1352 20.7762 31.0955 20.9827 31.0167 21.1754C30.9378 21.3682 30.8214 21.5433 30.6741 21.6906C30.5269 21.8378 30.3517 21.9543 30.159 22.0331C29.9663 22.112 29.7597 22.1517 29.5515 22.1499C29.3432 22.1481 29.1374 22.1048 28.9461 22.0226C28.7548 21.9404 28.5817 21.8209 28.437 21.6711C28.1513 21.3753 27.9932 20.9792 27.9968 20.5679C28.0004 20.1567 28.1653 19.7634 28.4561 19.4726C28.7469 19.1818 29.1403 19.0168 29.5515 19.0133C29.9627 19.0097 30.3589 19.1678 30.6547 19.4535Z" fill="#F8FAFF"/>
<path d="M5.79938 5.79806C4.03525 7.56272 3.04422 9.95579 3.04422 12.451C3.04422 14.9462 4.03525 17.3393 5.79938 19.104L9.39718 22.6986L22.7595 9.33313L19.1053 5.79806C17.3406 4.03394 14.9476 3.04291 12.4523 3.04291C9.9571 3.04291 7.56403 4.03394 5.79938 5.79806V5.79806ZM24.9992 11.532L11.618 24.9131L25.0964 38.3665L38.465 24.9978L24.9992 11.532ZM40.6639 27.2343L27.3109 40.5873L30.8962 44.1976C32.6785 45.8698 35.0415 46.7829 37.4852 46.7438C39.9288 46.7047 42.2614 45.7164 43.9893 43.9881C45.7173 42.2597 46.705 39.9269 46.7436 37.4833C46.7821 35.0396 45.8684 32.6768 44.1958 30.8948L44.177 30.876L40.6607 27.2374L40.6639 27.2343ZM23.9829 41.6883L3.58173 21.3248C1.2707 18.9644 -0.0162586 15.7879 0.000153428 12.4846C0.0165655 9.18132 1.33502 6.01776 3.66939 3.6805C6.00376 1.34325 9.16568 0.020875 12.469 0.000374838C15.7722 -0.0201254 18.9503 1.2629 21.3135 3.571L26.1095 8.20392L41.8119 23.9063L46.4291 28.6835C48.7372 31.0467 50.0203 34.2248 49.9998 37.528C49.9793 40.8313 48.6569 43.9932 46.3196 46.3276C43.9824 48.662 40.8188 49.9804 37.5155 49.9968C34.2122 50.0132 31.0357 48.7263 28.6754 46.4153L28.6691 46.4121L23.9891 41.6914L23.9829 41.6883V41.6883Z" fill="#F8FAFF"/>
<path d="M23.8887 32.6514C24.0332 32.5014 24.2061 32.3817 24.3973 32.2992C24.5885 32.2168 24.7943 32.1732 25.0025 32.1711C25.2107 32.169 25.4173 32.2084 25.6102 32.287C25.803 32.3656 25.9783 32.4818 26.1257 32.6289C26.2732 32.7759 26.3899 32.9508 26.469 33.1435C26.5482 33.3361 26.5881 33.5425 26.5866 33.7508C26.5851 33.959 26.5422 34.1649 26.4602 34.3563C26.3783 34.5478 26.2591 34.721 26.1095 34.8659C25.9639 35.0117 25.791 35.1274 25.6007 35.2064C25.4103 35.2854 25.2063 35.3262 25.0002 35.3263C24.5841 35.3266 24.1848 35.1616 23.8903 34.8675C23.5958 34.5734 23.4302 34.1744 23.4299 33.7582C23.4296 33.342 23.5947 32.9428 23.8887 32.6483L23.8887 32.6514ZM19.4534 28.213C19.5981 28.0632 19.7712 27.9437 19.9625 27.8615C20.1539 27.7793 20.3597 27.736 20.5679 27.7342C20.7762 27.7324 20.9827 27.7721 21.1754 27.8509C21.3682 27.9298 21.5433 28.0463 21.6905 28.1935C21.8378 28.3408 21.9542 28.5159 22.0331 28.7086C22.112 28.9014 22.1516 29.1079 22.1498 29.3161C22.148 29.5244 22.1048 29.7302 22.0226 29.9215C21.9404 30.1129 21.8209 30.2859 21.6711 30.4306C21.3753 30.7163 20.9791 30.8744 20.5679 30.8708C20.1567 30.8672 19.7633 30.7023 19.4725 30.4115C19.1818 30.1207 19.0168 29.7274 19.0132 29.3161C19.0097 28.9049 19.1677 28.5088 19.4534 28.213ZM15.0181 23.7745C15.164 23.6289 15.337 23.5134 15.5275 23.4347C15.7179 23.356 15.922 23.3155 16.1281 23.3157C16.3341 23.3158 16.5382 23.3566 16.7285 23.4356C16.9188 23.5146 17.0917 23.6303 17.2374 23.7761C17.383 23.9219 17.4984 24.095 17.5772 24.2854C17.6559 24.4759 17.6963 24.6799 17.6962 24.886C17.696 25.0921 17.6553 25.2961 17.5763 25.4865C17.4973 25.6768 17.3816 25.8497 17.2358 25.9953C16.94 26.281 16.5438 26.4391 16.1326 26.4355C15.7214 26.4319 15.328 26.267 15.0372 25.9762C14.7465 25.6854 14.5815 25.2921 14.5779 24.8808C14.5744 24.4696 14.7324 24.0734 15.0181 23.7777L15.0181 23.7745ZM32.7625 23.7745C32.9083 23.6289 33.0814 23.5134 33.2718 23.4347C33.4623 23.356 33.6663 23.3155 33.8724 23.3157C34.0785 23.3158 34.2825 23.3566 34.4728 23.4356C34.6632 23.5146 34.8361 23.6303 34.9817 23.7761C35.1273 23.9219 35.2428 24.095 35.3215 24.2854C35.4002 24.4759 35.4407 24.6799 35.4405 24.886C35.4404 25.0921 35.3997 25.2961 35.3207 25.4865C35.2417 25.6768 35.126 25.8497 34.9801 25.9953C34.6843 26.281 34.2882 26.4391 33.8769 26.4355C33.4657 26.4319 33.0724 26.267 32.7816 25.9762C32.4908 25.6854 32.3259 25.2921 32.3223 24.8808C32.3187 24.4696 32.4768 24.0734 32.7625 23.7777L32.7625 23.7745ZM28.324 19.3424C28.6181 19.0479 29.0171 18.8822 29.4333 18.882C29.8495 18.8817 30.2488 19.0467 30.5433 19.3408C30.8378 19.6349 31.0034 20.0339 31.0037 20.4501C31.004 20.8663 30.8389 21.2655 30.5448 21.56C30.249 21.8457 29.8529 22.0038 29.4416 22.0002C29.0304 21.9966 28.6371 21.8317 28.3463 21.5409C28.0555 21.2501 27.8906 20.8568 27.887 20.4455C27.8834 20.0343 28.0415 19.6381 28.3272 19.3424L28.324 19.3424ZM23.8887 14.9071C24.0332 14.7571 24.2061 14.6374 24.3973 14.5549C24.5885 14.4724 24.7943 14.4289 25.0025 14.4268C25.2107 14.4247 25.4173 14.4641 25.6102 14.5427C25.803 14.6213 25.9783 14.7375 26.1257 14.8845C26.2732 15.0316 26.3899 15.2065 26.469 15.3991C26.5482 15.5917 26.5881 15.7982 26.5866 16.0064C26.5851 16.2147 26.5422 16.4205 26.4602 16.612C26.3783 16.8034 26.2591 16.9767 26.1095 17.1216C25.9639 17.2674 25.791 17.3831 25.6007 17.4621C25.4103 17.5411 25.2063 17.5818 25.0002 17.582C24.5841 17.5823 24.1848 17.4172 23.8903 17.1231C23.5958 16.8291 23.4302 16.43 23.4299 16.0138C23.4296 15.5977 23.5947 15.1984 23.8887 14.9039L23.8887 14.9071ZM28.324 28.213C28.4697 28.0671 28.6426 27.9514 28.8329 27.8724C29.0232 27.7934 29.2273 27.7527 29.4333 27.7526C29.6394 27.7524 29.8435 27.7929 30.0339 27.8716C30.2244 27.9503 30.3974 28.0658 30.5433 28.2114C30.6891 28.357 30.8048 28.5299 30.8838 28.7202C30.9628 28.9106 31.0035 29.1146 31.0037 29.3207C31.0038 29.5267 30.9634 29.7308 30.8846 29.9213C30.8059 30.1117 30.6904 30.2848 30.5448 30.4306C30.249 30.7163 29.8529 30.8744 29.4416 30.8708C29.0304 30.8672 28.6371 30.7023 28.3463 30.4115C28.0555 30.1207 27.8906 29.7274 27.887 29.3161C27.8834 28.9049 28.0415 28.5088 28.3272 28.213L28.324 28.213ZM23.8887 23.7745C24.0346 23.6287 24.2077 23.513 24.3982 23.4341C24.5887 23.3552 24.7929 23.3146 24.9991 23.3146C25.2054 23.3146 25.4096 23.3552 25.6001 23.4341C25.7906 23.513 25.9637 23.6287 26.1095 23.7745C26.2553 23.9203 26.371 24.0934 26.4499 24.284C26.5288 24.4745 26.5695 24.6787 26.5695 24.8849C26.5695 25.0911 26.5288 25.2953 26.4499 25.4859C26.371 25.6764 26.2553 25.8495 26.1095 25.9953C25.9639 26.1411 25.791 26.2568 25.6007 26.3358C25.4103 26.4148 25.2063 26.4556 25.0002 26.4557C24.5841 26.456 24.1848 26.291 23.8903 25.9969C23.5958 25.7028 23.4302 25.3038 23.4299 24.8876C23.4296 24.4714 23.5947 24.0721 23.8887 23.7777L23.8887 23.7745ZM19.4534 19.3424C19.5981 19.1926 19.7712 19.0731 19.9625 18.9909C20.1539 18.9087 20.3597 18.8654 20.5679 18.8636C20.7762 18.8618 20.9827 18.9015 21.1754 18.9803C21.3682 19.0592 21.5433 19.1757 21.6905 19.3229C21.8378 19.4702 21.9542 19.6453 22.0331 19.838C22.112 20.0308 22.1516 20.2373 22.1498 20.4455C22.148 20.6538 22.1048 20.8596 22.0226 21.0509C21.9404 21.2423 21.8209 21.4153 21.6711 21.56C21.3753 21.8457 20.9791 22.0038 20.5679 22.0002C20.1567 21.9966 19.7633 21.8317 19.4725 21.5409C19.1818 21.2501 19.0168 20.8568 19.0132 20.4455C19.0097 20.0343 19.1677 19.6381 19.4534 19.3424Z" fill="#F8FAFF"/>
</svg>
